<svg width="120" height="32" viewBox="0 0 120 32" fill="none" xmlns="http://www.w3.org/2000/svg">
<g clip-path="url(#clip0)">
<path d="M54.7992 -2.28882e-05H54.926L56.5751 5.45452L55.5603 4.69343L56.0677 12.4313C55.8985 12.5158 55.4757 12.6004 54.7992 12.685V12.5581C54.7992 9.93656 54.5032 6.17334 53.9112 1.26848C53.9958 1.26848 54.2918 0.845643 54.7992 -2.28882e-05ZM51.1205 0.253677C50.9514 1.18391 50.8245 1.64903 50.74 1.64903C39.8309 5.11626 30.9091 8.58349 23.9746 12.0507V11.9239C24.3975 10.7399 24.6512 10.148 24.7357 10.148C30.0634 7.61097 37.2939 4.82028 46.4271 1.77588L51.1205 0.126827V0.253677ZM61.0148 0.253677H61.1416L62.6638 5.32767L61.649 5.07398L61.9027 11.9239L67.2304 13.1924L66.2156 14.9683C63.7632 14.2917 62.241 13.9535 61.649 13.9535H60.888C58.8584 13.9535 56.0254 14.4186 52.389 15.3488L39.704 18.3932C39.0275 19.408 38.3932 20.9725 37.8013 23.0867V23.5941C37.8013 24.1015 37.9704 24.3974 38.3087 24.482C38.6469 24.7357 39.0275 24.8626 39.4503 24.8626C40.2114 24.8626 41.1416 24.4397 42.241 23.5941L46.8076 20.8034C48.4989 19.8731 51.1628 18.8161 54.7992 17.6321C54.8837 17.5476 54.926 17.463 54.926 17.3784L55.0529 15.3488C55.0529 15.2643 55.3066 15.222 55.814 15.222C55.814 15.222 55.9831 15.222 56.3214 15.222H56.4482C56.1945 16.4905 55.9831 17.3361 55.814 17.759C55.1374 18.6892 54.4186 19.3235 53.6575 19.6617C51.0359 20.5074 49.556 21.0148 49.2178 21.1839C47.1882 22.1987 46.0042 22.833 45.666 23.0867C43.2981 24.8626 41.6068 25.7928 40.592 25.8774C40.2537 26.0465 39.9577 26.1311 39.704 26.1311H39.3235C38.2241 26.1311 37.5053 25.7082 37.167 24.8626C37.167 24.8626 37.1247 24.6512 37.0402 24.2283C37.0402 22.8753 37.5899 20.9302 38.6892 18.3932L30.9514 19.0275H30.8245H30.6977H30.5708H30.444H30.3171H30.1903H30.0634H29.9366H29.8097H29.556H29.0486V18.9006V19.0275L28.7949 18.9006C27.2727 18.9006 25.1586 18.5201 22.4524 17.759C20.6765 17.167 19.408 16.3213 18.6469 15.222C18.055 14.3763 17.463 13.4038 16.871 12.3044C16.6173 12.0507 16.4059 11.9239 16.2368 11.9239C15.5603 11.9239 14.8414 12.5581 14.0803 13.8266C13.9112 14.1649 13.8266 14.5032 13.8266 14.8414V15.0951C13.8266 16.3636 14.9683 17.463 17.2516 18.3932C17.8436 18.7315 18.1395 18.9429 18.1395 19.0275C18.2241 19.1966 18.3087 19.4503 18.3932 19.7886C18.1395 20.5497 17.9704 20.9302 17.8858 20.9302C16.3636 20.2537 15.518 19.9154 15.3488 19.9154H14.7146C13.8689 19.9154 13.0233 20.1691 12.1776 20.6765C11.9239 20.6765 10.0634 21.7336 6.59619 23.8478C6.00423 24.186 5.70825 24.3974 5.70825 24.482C5.28541 25.4122 5.074 26.2156 5.074 26.8922C5.074 27.6533 5.3277 28.2029 5.83509 28.5412C5.91966 28.5412 6.04651 28.5412 6.21565 28.5412H6.34249C6.84989 28.5412 7.90698 28.0761 9.51374 27.1459C14.5877 24.186 17.3362 22.7061 17.759 22.7061C18.2664 22.537 18.6892 22.4524 19.0275 22.4524C19.4503 22.4524 20.2537 22.6638 21.4376 23.0867V22.9598C21.5222 22.3679 21.6068 22.0719 21.6913 22.0719C22.3679 22.7484 22.9598 23.5095 23.4672 24.3552C24.3129 25.2854 25.074 25.7928 25.7505 25.8774C27.5264 26.6385 29.8943 27.3996 32.8541 28.1607C33.8689 28.4144 35.814 28.7526 38.6892 29.1755C43.5941 29.5137 46.7653 29.6829 48.203 29.6829V29.8097V29.6829L48.3298 29.8097H49.0909H49.2178H49.3446H52.0085H52.1353H52.2622H52.6427H56.5751H57.0825H57.2093H58.4778H58.6046H58.7315H58.8583H59.6194H59.8731L61.649 29.6829H61.9027C63.5941 29.5983 64.9894 29.5137 66.0888 29.4292V29.556V29.4292L68.3721 29.3023H68.4989H68.7526C75.4334 28.7949 81.2262 28.1607 86.1311 27.3996C91.4588 26.5539 96.2368 25.666 100.465 24.7357L105.412 23.3404C105.497 23.3404 105.539 23.6364 105.539 24.2283C105.793 24.9049 105.962 25.2431 106.047 25.2431C106.554 25.5814 107.019 25.7505 107.442 25.7505C108.457 25.7505 109.514 24.9471 110.613 23.3404L111.374 23.0867C111.036 23.5941 110.867 23.9323 110.867 24.1015C111.205 25.0317 111.628 25.4968 112.135 25.4968C112.643 25.4968 113.277 24.9471 114.038 23.8478L114.545 22.833C114.968 23.8478 115.307 24.3552 115.56 24.3552C116.237 24.8626 116.956 25.1163 117.717 25.1163H118.351L118.605 23.9746C117.252 19.4926 116.533 17.0824 116.448 16.7442C116.871 15.7294 117.082 15.1374 117.082 14.9683C117.928 15.8139 118.52 16.6173 118.858 17.3784L118.985 17.759H118.732H118.605H118.351H117.97V17.6321L117.844 17.759C118.858 20.5497 119.366 22.0296 119.366 22.1987C119.619 23.129 119.746 23.8478 119.746 24.3552C119.746 24.6934 119.662 25.074 119.493 25.4968C119.323 25.9197 119.07 26.2156 118.732 26.3848C118.393 26.6385 118.055 26.7653 117.717 26.7653L117.463 26.8922V26.7653L117.336 26.8922L117.209 26.7653V26.8922C116.279 26.8922 115.391 26.3848 114.545 25.37L114.292 25.1163C113.446 26.3002 112.516 26.9767 111.501 27.1459H111.247C110.74 27.1459 110.233 26.6807 109.725 25.7505C108.372 26.9344 107.357 27.5264 106.681 27.5264H106.427C105.497 27.5264 104.905 26.723 104.651 25.1163C99.1543 26.5539 92.6427 27.9492 85.1163 29.3023C81.4799 29.8943 77.167 30.4017 72.1776 30.8245C66.7653 31.3319 63.3827 31.5856 62.0296 31.5856H61.9027H61.2685H61.1416H60.6342H60.2537H59.4926H59.112H58.2241L57.8435 31.7125V31.5856V31.7125H56.3214L56.0677 31.8393V31.7125V31.8393V31.7125L55.9408 31.8393H55.814V31.7125V31.8393H52.7696L52.6427 31.7125V31.8393H52.5159V31.7125V31.8393H52.389V31.7125V31.8393H52.2622V31.7125L52.1353 31.8393V31.7125V31.8393L51.8816 31.7125H50.2326V31.5856L50.1057 31.7125L49.5983 31.5856H48.8372H48.7104H48.5835H48.4567H47.9493H47.8224H47.4419H46.9345H46.5539H46.1734H45.9197H45.5391V31.4588L45.4123 31.5856L45.1586 31.4588H44.778H44.5243H44.1438V31.3319V31.4588C43.0444 31.4588 40.296 31.1628 35.8985 30.5708C31.9239 29.8943 28.7104 29.0909 26.2579 28.1607L24.1015 27.2727V27.3996L24.2283 28.0338C24.2283 28.7104 24.0592 29.1332 23.7209 29.3023C23.129 29.1332 22.6216 28.7526 22.1987 28.1607C21.8605 27.6533 21.5645 26.8499 21.3108 25.7505C21.2262 25.1586 21.0994 24.8626 20.9302 24.8626C20.0846 24.5243 19.3235 24.3552 18.6469 24.3552C17.9704 24.3552 16.0254 25.2008 12.8118 26.8922C9.59831 29.0063 7.90698 30.0634 7.73784 30.0634C7.39958 30.148 7.06131 30.1903 6.72304 30.1903H6.34249C5.49683 30.1903 4.8203 29.5983 4.3129 28.4144C4.22833 28.1607 4.18605 27.907 4.18605 27.6533C4.18605 27.1459 4.35518 26.2156 4.69345 24.8626C3.84778 25.4545 3.25581 25.7505 2.91755 25.7505H2.537C1.35307 25.7505 0.591966 25.2008 0.2537 24.1015C0.0845666 23.6786 0 23.1712 0 22.5793C0 21.5645 0.422833 20.2114 1.2685 18.5201L3.17125 15.7294L3.2981 16.3636C1.60677 19.6617 0.761099 21.4799 0.761099 21.8182C0.676533 22.0719 0.63425 22.3678 0.63425 22.7061C0.63425 23.4672 1.05708 23.9323 1.90275 24.1015H2.15645C2.49471 24.1015 3.5518 23.6363 5.3277 22.7061L13.6998 18.1395C13.1078 16.871 12.8118 15.8985 12.8118 15.222C12.8118 13.8689 13.4461 12.389 14.7146 10.7822C15.222 10.2748 15.6448 10.0211 15.9831 10.0211H16.3636C16.7019 10.0211 16.9556 10.2325 17.1247 10.6554L18.5201 12.9387C19.3658 13.8689 20.0846 14.5032 20.6765 14.8414C21.1839 15.1797 22.1142 15.5602 23.4672 15.9831C26.5962 16.6596 30.1057 16.9979 33.9958 16.9979H34.1226H34.8837H35.0106H36.2791H36.4059C38.1818 16.9979 42.4947 16.2368 49.3446 14.7146L57.463 12.685C56.7865 12.3467 56.4482 12.1353 56.4482 12.0507V10.148L60.6342 11.797C60.5497 6.13106 60.4651 3.29808 60.3805 3.29808C60.296 3.29808 60.1691 2.87524 60 2.02958L61.0148 0.253677ZM65.4545 0.253677C66.3002 0.253677 67.3573 0.507377 68.6258 1.01478C68.7104 1.18391 68.7526 1.31076 68.7526 1.39533V1.64903C68.7526 1.90273 68.3298 2.49469 67.4841 3.42493C66.9767 3.84776 66.3002 4.14374 65.4545 4.31288L64.5666 4.43972C64.9049 4.18603 65.4545 3.89004 66.2156 3.55178C66.723 3.29808 67.1036 3.00209 67.3573 2.66383C67.1036 2.41013 66.3425 2.19871 65.074 2.02958C64.6512 2.02958 64.4398 1.98729 64.4398 1.90273C64.6089 1.39533 64.9471 0.845643 65.4545 0.253677ZM78.2664 1.64903H78.3932C78.6469 1.64903 78.8161 2.19871 78.9006 3.29808C79.2389 4.22831 79.4926 4.69343 79.6617 4.69343H79.7886C80.0423 4.69343 80.2537 4.65114 80.4228 4.56658C80 3.72091 79.7886 3.25579 79.7886 3.17123L79.9154 2.41013H80.0423C80.4651 3.25579 80.7188 3.97461 80.8034 4.56658C80.6342 5.41224 80.3805 5.83507 80.0423 5.83507C79.7886 5.83507 79.3658 5.53909 78.7738 4.94712C78.7738 5.03169 78.5624 5.32767 78.1395 5.83507C78.1395 5.91964 77.8858 6.00421 77.3784 6.08877H77.2516C76.8288 6.08877 76.5751 5.75051 76.4905 5.07398C76.4905 3.63634 76.4482 2.91753 76.3636 2.91753H76.2368C76.0676 3.00209 75.6871 3.08666 75.0951 3.17123C74.0803 3.42493 73.1501 3.72091 72.3044 4.05918C71.1205 4.73571 69.852 5.49681 68.4989 6.34247C68.4989 5.66594 68.8372 5.20083 69.5137 4.94712C70.8668 4.10146 72.2199 3.42493 73.5729 2.91753C75.3488 2.32556 76.3636 2.02958 76.6173 2.02958C76.7019 2.02958 76.7865 2.28328 76.871 2.79068L76.6173 3.42493V3.55178C76.6173 4.31288 76.8288 4.77799 77.2516 4.94712C77.3361 5.03169 77.4207 5.07398 77.5053 5.07398H77.6321C77.8858 5.07398 78.2241 4.82028 78.6469 4.31288L78.0127 1.64903H78.2664ZM58.8583 2.66383V2.79068C58.3509 4.56658 58.0972 5.49681 58.0972 5.58138V5.70822C58.0972 6.13106 58.1818 6.34247 58.351 6.34247H58.8583H58.9852L59.112 6.46932C59.112 6.89216 58.9006 7.18814 58.4778 7.35727H58.2241C57.9704 7.35727 57.7167 7.06129 57.463 6.46932L57.3362 5.96192C57.3362 4.86256 57.7167 3.89004 58.4778 3.04438L58.8583 2.66383ZM84.7357 2.79068C84.8203 2.95981 85.1586 3.76319 85.7505 5.20082L86.3848 6.84987H86.2579H85.37L86.0042 15.3488C86.0042 17.1247 85.5814 18.3087 84.7357 18.9006C83.7209 19.5772 81.9027 20.3805 79.2812 21.3108C78.8584 21.3953 77.6321 22.1564 75.6025 23.5941L73.1924 25.37C71.9239 26.1311 70.9091 26.5116 70.148 26.5116H69.8943C68.9641 26.5116 68.3721 25.7928 68.1184 24.3552C65.7505 25.7082 63.6786 26.7653 61.9027 27.5264H61.3953L61.2685 27.3996V27.2727L68.1184 23.4672V23.0867C68.1184 21.3108 68.7526 19.6194 70.0211 18.0127L70.7822 17.6321C69.6829 19.2389 69.0909 20.6765 69.0063 21.945L68.8795 22.9598C70.3171 21.8605 71.0359 21.3108 71.0359 21.3108C71.3742 20.2114 71.5856 19.6617 71.6702 19.6617C72.0085 19.2389 72.2622 19.0275 72.4313 19.0275H72.5581C72.981 19.0275 73.3615 19.4503 73.6998 20.296V20.8034C73.6998 21.3108 73.4038 21.6068 72.8118 21.6913H72.685C72.4313 21.6913 72.093 21.6068 71.6702 21.4376C71.3319 21.8605 70.3594 22.6638 68.7526 23.8478C68.9218 24.6089 69.1755 24.9894 69.5137 24.9894H69.6406C70.6554 24.9894 72.7273 23.9746 75.8562 21.945L79.7886 19.5349C82.4101 18.6046 84.0169 17.9704 84.6089 17.6321C85.0317 17.3784 85.2431 16.9133 85.2431 16.2368C84.5666 9.21774 84.1861 5.53909 84.1015 5.20082L83.7209 4.05918C84.1438 3.46721 84.482 3.04438 84.7357 2.79068ZM51.2474 2.91753C51.5856 2.91753 51.9662 3.21351 52.389 3.80548C52.2199 4.22831 52.0507 4.43972 51.8816 4.43972C51.4588 4.10146 51.1628 3.93233 50.9937 3.93233C50.5708 3.93233 50.148 4.90484 49.7252 6.84987C49.6406 7.10357 49.5983 7.23042 49.5983 7.23042C49.1755 6.04649 48.7526 5.41224 48.3298 5.32767C48.2452 5.32767 48.1607 5.32767 48.0761 5.32767H47.9493C47.611 5.32767 47.4419 5.03169 47.4419 4.43972C47.5264 4.18603 47.6533 4.05918 47.8224 4.05918H48.0761C48.4144 4.05918 48.7949 4.48201 49.2178 5.32767C49.4715 5.66594 49.5983 5.83507 49.5983 5.83507C50.1057 4.14374 50.5708 3.21351 50.9937 3.04438L51.2474 2.91753ZM27.7801 3.93233H27.907V4.43972C27.5687 5.11626 27.3996 5.66594 27.3996 6.08877C27.3996 6.51161 27.6533 6.76531 28.1607 6.84987H28.2875C28.6258 6.84987 28.9218 6.59617 29.1755 6.08877V5.96192C28.9218 5.70822 28.4989 5.58138 27.907 5.58138C28.2452 5.07398 28.4144 4.82028 28.4144 4.82028C29.0063 4.82028 29.4715 5.11626 29.8097 5.70822C29.7252 6.21562 29.5137 6.68074 29.1755 7.10357C28.6681 7.52641 28.2452 7.73782 27.907 7.73782C27.3996 7.73782 27.0613 7.27271 26.8922 6.34247V6.21562C26.8922 5.70822 27.1882 4.94712 27.7801 3.93233ZM89.6829 4.56658L91.3319 9.13317L90.1903 8.75262H90.3171L90.9514 20.6765L90.3171 20.9302H90.1903C89.7674 13.5729 89.3446 8.66806 88.9218 6.21562V6.08877L89.6829 4.56658ZM93.7421 5.32767C93.9958 5.32767 94.3763 5.66594 94.8837 6.34247C95.222 6.59617 95.518 7.01901 95.7717 7.61097C95.6025 8.11837 95.4334 8.37207 95.2643 8.37207H93.9958C93.9112 8.71034 93.6152 9.09089 93.1078 9.51372C92.7695 9.85199 92.6004 10.1057 92.6004 10.2748C92.6004 10.3594 92.685 10.444 92.8541 10.5285H92.981C93.9958 10.2748 94.8414 10.0211 95.518 9.76742C97.8858 8.41436 99.1966 7.73782 99.4503 7.73782H99.5772H99.704C100.042 7.73782 100.211 7.78011 100.211 7.86467C100.211 8.20294 99.8309 8.37207 99.0698 8.37207C98.2241 8.71034 97.3362 9.17546 96.4059 9.76742C94.9683 10.6131 93.8266 11.0782 92.981 11.1628H92.7273C92.4736 11.1628 92.3044 10.9514 92.2199 10.5285V10.4017C92.2199 9.97884 92.685 9.34459 93.6152 8.49892L93.7421 8.37207V7.99152L93.6152 7.48412C93.6152 6.80759 93.6575 6.46932 93.7421 6.46932L93.6152 5.83507C93.6152 5.49681 93.6575 5.32767 93.7421 5.32767ZM66.4693 6.34247C66.6385 6.34247 66.9767 6.63846 67.4841 7.23042C67.4841 7.39956 67.3573 7.61097 67.1036 7.86467H66.9767C66.6385 7.61097 66.4271 7.44184 66.3425 7.35727C65.9197 7.35727 65.4968 8.03381 65.074 9.38687C64.8203 10.3171 64.6934 10.7822 64.6934 10.7822C64.186 9.42916 63.8055 8.75262 63.5518 8.75262C63.3827 8.75262 63.2135 8.79491 63.0444 8.87947C62.7061 8.79491 62.537 8.54121 62.537 8.11837V7.86467C62.6216 7.61097 62.7907 7.48412 63.0444 7.48412C63.5518 7.48412 64.0169 7.94924 64.4398 8.87947L64.6934 9.26002H64.8203C65.1586 7.82239 65.5391 6.93444 65.9619 6.59617C66.2156 6.42704 66.3848 6.34247 66.4693 6.34247ZM44.1438 6.46932C44.8203 7.56869 45.1586 8.28751 45.1586 8.62577C44.9049 9.47144 44.6089 9.89427 44.2706 9.89427C43.9323 9.89427 43.5518 9.59829 43.129 9.00632C42.6216 9.68286 42.1987 10.0211 41.8605 10.0211H41.6068C41.0994 10.0211 40.8034 9.55601 40.7188 8.62577V7.35727C40.7188 7.27271 40.8457 7.18814 41.0994 7.10357V7.23042V8.11837V8.24522C41.0994 8.75262 41.3108 9.00632 41.7336 9.00632C41.9873 9.00632 42.3256 8.79491 42.7484 8.37207L42.3679 6.72302C42.4524 6.55389 42.4947 6.46932 42.4947 6.46932H42.6216C42.9598 6.89216 43.2558 7.39956 43.5095 7.99152C43.6786 8.49892 43.8901 8.75262 44.1438 8.75262C44.5666 8.75262 44.778 8.66806 44.778 8.49892C44.2706 7.56869 44.0169 7.01901 44.0169 6.84987C44.1015 6.59617 44.1438 6.46932 44.1438 6.46932ZM22.7061 6.59617C22.9598 6.59617 23.2981 6.84987 23.7209 7.35727C23.5518 7.86467 23.3827 8.11837 23.2135 8.11837C22.9598 7.78011 22.7061 7.61097 22.4524 7.61097C22.0296 7.61097 21.5645 8.66806 21.0571 10.7822V10.9091H20.9302C20.592 9.8097 20.2537 9.13317 19.9154 8.87947L19.408 9.00632H19.2812C19.0275 9.00632 18.9006 8.71034 18.9006 8.11837C18.9006 7.86467 19.0275 7.73782 19.2812 7.73782H19.5349C19.8731 7.73782 20.2537 8.16066 20.6765 9.00632C20.8457 9.26002 20.9725 9.38687 21.0571 9.38687C21.0571 9.38687 21.2685 8.83719 21.6913 7.73782C21.945 7.06129 22.241 6.68074 22.5793 6.59617H22.7061ZM93.7421 7.23042C93.7421 7.48412 93.8689 7.61097 94.1226 7.61097C94.3763 7.61097 94.5032 7.48412 94.5032 7.23042C94.5032 7.06129 94.4186 6.93444 94.2495 6.84987H93.9958C93.8266 6.93444 93.7421 7.06129 93.7421 7.23042ZM94.63 7.35727V7.48412C94.63 7.73782 94.7569 7.86467 95.0106 7.86467C95.1797 7.86467 95.3066 7.73782 95.3911 7.48412C95.3911 7.23042 95.2643 7.10357 95.0106 7.10357H94.8837C94.7146 7.10357 94.63 7.18814 94.63 7.35727ZM36.6596 7.35727L36.7865 7.86467C36.0254 9.64057 35.6448 10.8245 35.6448 11.4165C35.6448 12.093 35.8985 12.6004 36.4059 12.9387H36.7865C37.1247 12.9387 37.463 12.6427 37.8013 12.0507C37.9704 11.8816 38.1395 11.797 38.3087 11.797C37.8858 12.981 37.3784 13.8689 36.7865 14.4609C36.6173 14.7146 36.4482 14.8414 36.2791 14.8414H36.1522C35.6448 14.8414 35.222 14.3763 34.8837 13.4461C34.7992 13.1078 34.7569 12.8118 34.7569 12.5581V12.1776C34.7569 11.5856 35.0529 10.7399 35.6448 9.64057L36.6596 7.35727ZM72.1776 7.48412C74.1226 7.48412 77.9704 8.11837 83.7209 9.38687C83.9746 9.38687 84.1015 9.55601 84.1015 9.89427V10.148C84.1015 10.5708 83.9323 10.9514 83.5941 11.2896L76.4905 13.8266C77.0825 15.3488 77.3784 16.4905 77.3784 17.2516C77.3784 17.6744 77.2516 17.9704 76.9979 18.1395H76.871C75.0951 17.7167 74.2072 16.9133 74.2072 15.7294V15.3488C72.7696 15.6871 70.9514 16.5328 68.7526 17.8858C63.9323 21.7759 61.0994 23.9746 60.2537 24.482C56.7865 26.6807 54.8414 27.7801 54.4186 27.7801C53.8266 28.0338 53.277 28.1607 52.7696 28.1607C51.4165 28.1607 50.5708 27.5264 50.2326 26.2579C50.148 25.9196 50.1057 25.5391 50.1057 25.1163C50.1057 23.5941 50.4017 22.3256 50.9937 21.3108L51.3742 20.9302C51.1205 22.1987 50.9937 23.129 50.9937 23.7209V24.1015C50.9937 25.0317 51.4165 25.7082 52.2622 26.1311C52.5159 26.1311 52.7273 26.1311 52.8964 26.1311H53.1501C54.2495 26.1311 55.8985 25.4545 58.0972 24.1015C58.6892 23.7632 61.0994 21.9873 65.3277 18.7738C67.7801 16.9979 69.4715 15.8139 70.4017 15.222C71.1628 14.9683 72.093 14.5032 73.1924 13.8266C71.1628 12.1353 70.0211 11.1628 69.7674 10.9091C69.5137 10.5708 69.3869 10.2325 69.3869 9.89427V9.76742C69.3869 9.09089 69.7674 8.45664 70.5285 7.86467C70.9514 7.61097 71.5011 7.48412 72.1776 7.48412ZM48.5835 8.11837H49.4715C50.5708 8.11837 52.0085 8.45664 53.7844 9.13317C53.7844 9.13317 53.8689 9.13317 54.0381 9.13317C54.0381 9.13317 54.0803 9.85199 54.1649 11.2896C51.797 10.5285 50.3171 10.148 49.7252 10.148C49.6406 10.2325 49.4715 10.5285 49.2178 11.0359C48.0338 10.6977 47.1459 10.5285 46.5539 10.5285C46.1311 10.5285 45.9197 10.4017 45.9197 10.148V9.64057C45.9197 8.87947 46.4693 8.41436 47.5687 8.24522L48.5835 8.11837ZM105.539 8.37207C105.708 8.37207 106.512 8.83719 107.949 9.76742C109.049 10.6131 109.894 11.8393 110.486 13.4461C110.74 14.4609 110.867 15.4334 110.867 16.3636V16.9979C110.867 18.6046 110.359 20.2114 109.345 21.8182C108.584 22.5793 107.822 23.2558 107.061 23.8478C108.922 20.7188 109.937 18.3509 110.106 16.7442V16.6173C110.106 15.518 109.641 14.1649 108.71 12.5581C107.611 11.4588 106.681 10.6554 105.92 10.148C105.92 10.148 105.793 10.1057 105.539 10.0211H105.412L105.285 10.148C105.285 10.6554 105.666 11.3319 106.427 12.1776L105.666 12.4313V12.5581C106.342 14.1649 106.85 15.518 107.188 16.6173C107.357 17.2093 107.442 17.6744 107.442 18.0127C107.442 19.0275 107.061 20.0423 106.3 21.0571C105.624 21.649 104.947 21.945 104.271 21.945C103.34 21.945 102.537 21.4376 101.86 20.4228C101.691 20 101.438 19.2812 101.099 18.2664C100.846 19.6194 100.338 20.6765 99.5772 21.4376C98.9006 22.4524 98.055 22.9598 97.0402 22.9598C96.1099 22.9598 95.3488 22.4101 94.7569 21.3108C94.4186 20.3805 94.2495 19.4503 94.2495 18.5201C94.2495 18.3509 94.4186 17.0402 94.7569 14.5877V14.334C94.7569 14.0803 94.63 13.9112 94.3763 13.8266C93.9535 13.9958 93.6152 14.5032 93.3615 15.3488C93.0233 16.5328 92.7696 17.8435 92.6004 19.2812C92.0085 21.649 91.4165 22.833 90.8245 22.833H90.5708C89.9789 22.833 89.4715 22.3256 89.0486 21.3108C88.7104 20.4651 88.5412 19.0275 88.5412 16.9979C88.4567 16.9979 88.4144 16.5328 88.4144 15.6025H88.2875L88.6681 14.9683C88.7526 17.167 88.8795 18.6469 89.0486 19.408C89.3869 20.7611 89.852 21.4376 90.444 21.4376C91.2051 21.4376 91.9239 19.8731 92.6004 16.7442C92.9387 15.1374 93.3192 13.9535 93.7421 13.1924C94.4186 12.093 94.926 11.5433 95.2643 11.5433C95.518 11.7125 95.6448 12.0084 95.6448 12.4313V12.8118L95.3911 14.9683C95.1374 16.0676 95.0106 16.9556 95.0106 17.6321C95.0106 19.2389 95.6025 20.4228 96.7865 21.1839C96.9556 21.2685 97.2093 21.3108 97.5476 21.3108C98.1395 21.3108 98.8584 20.8879 99.704 20.0423C99.9577 19.5349 100.254 18.7738 100.592 17.759C100.592 16.1522 100.381 13.9112 99.9577 11.0359L100.719 9.76742H100.846C101.353 12.0507 101.607 13.4461 101.607 13.9535L101.734 17.6321C102.579 19.2389 103.51 20.0423 104.524 20.0423H104.651C105.581 20.0423 106.173 19.704 106.427 19.0275L106.554 18.3932C105.539 16.1945 105.032 14.926 105.032 14.5877C104.693 13.4038 104.397 12.3044 104.144 11.2896L105.539 8.37207ZM88.1607 8.75262C87.907 9.76742 87.6956 10.5708 87.5264 11.1628V11.6702V11.797C87.5264 12.1353 87.7378 12.3044 88.1607 12.3044H88.2875H88.4144V12.5581C88.3298 13.0655 88.1184 13.3192 87.7801 13.3192C87.3573 13.3192 87.0613 13.0655 86.8922 12.5581L86.7653 11.9239C86.7653 10.7399 87.1459 9.72514 87.907 8.87947L88.1607 8.75262ZM70.4017 9.51372C70.4017 10.0211 71.2051 10.6977 72.8118 11.5433C73.5729 11.9662 74.2072 12.4313 74.7146 12.9387L74.8414 13.0655L81.0571 10.6554C79.1966 10.148 77.2516 9.80971 75.222 9.64057C74.3763 9.47144 73.4038 9.38687 72.3044 9.38687H70.6554L70.4017 9.51372ZM9.76744 10.7822C10.1057 10.7822 10.444 11.0782 10.7822 11.6702C10.6977 12.093 10.5708 12.3044 10.4017 12.3044C10.0634 11.9662 9.80973 11.797 9.64059 11.797H9.51374C9.34461 11.797 9.13319 12.1353 8.87949 12.8118L8.11839 15.222C7.78013 13.9535 7.39958 13.2769 6.97674 13.1924H6.59619C6.25793 13.1924 6.04651 12.981 5.96195 12.5581C5.96195 12.1353 6.08879 11.9239 6.34249 11.9239H6.72304C6.97674 11.9239 7.35729 12.389 7.86469 13.3192C8.03383 13.5729 8.16068 13.6998 8.24524 13.6998V13.5729C8.75264 11.7125 9.26004 10.7822 9.76744 10.7822ZM43.2558 10.7822C43.5941 10.7822 43.9323 11.0782 44.2706 11.6702C44.2706 11.8393 44.1438 12.0507 43.8901 12.3044C43.4672 11.9662 43.2135 11.797 43.129 11.797H43.0021C42.6638 11.797 42.241 12.8964 41.7336 15.0951L41.6068 15.222C41.1839 13.9535 40.8034 13.2769 40.4651 13.1924H40.0846H39.9577C39.704 13.1924 39.5349 12.9387 39.4503 12.4313C39.4503 12.093 39.5772 11.9239 39.8309 11.9239H40.0846C40.5074 11.9239 40.8879 12.389 41.2262 13.3192L41.6068 13.6998H41.7336C42.241 11.7547 42.7484 10.7822 43.2558 10.7822ZM31.5856 11.0359C31.8393 11.0359 32.1353 11.3319 32.4736 11.9239C32.389 12.2621 32.2622 12.4736 32.093 12.5581C31.7548 12.1353 31.4588 11.9239 31.2051 11.9239C30.7822 11.9239 30.3171 13.0655 29.8097 15.3488H29.6829C29.5137 14.5032 29.1755 13.8266 28.6681 13.3192H28.5412L28.1607 13.4461V13.3192V13.4461C27.907 13.4461 27.6956 13.1501 27.5264 12.5581C27.611 12.3044 27.7378 12.1776 27.907 12.1776H28.2875C28.6258 12.1776 28.9218 12.5158 29.1755 13.1924C29.3446 13.2769 29.556 13.5306 29.8097 13.9535C29.8943 13.8689 30.1057 13.2347 30.444 12.0507C30.6977 11.4588 30.9937 11.1205 31.3319 11.0359H31.5856ZM68.7526 11.4165C68.3298 12.7695 68.1184 13.5306 68.1184 13.6998C68.1184 13.8689 68.203 14.038 68.3721 14.2072H68.8795L69.0063 14.334V14.4609C69.0063 14.7991 68.7949 15.0106 68.3721 15.0951C67.8647 15.0106 67.611 14.63 67.611 13.9535C67.611 13.1078 67.907 12.3467 68.4989 11.6702C68.5835 11.501 68.6681 11.4165 68.7526 11.4165ZM26.1311 11.9239C25.7928 13.2769 25.6237 14.038 25.6237 14.2072V14.334C25.6237 14.5877 25.666 14.7569 25.7505 14.8414H26.2579H26.3848V15.0951C26.3002 15.4334 26.1311 15.6025 25.8774 15.6025C25.37 15.4334 25.1163 15.1374 25.1163 14.7146V14.4609C25.1163 13.3615 25.4545 12.5158 26.1311 11.9239ZM81.3108 13.1924C80.8034 14.5454 80.5497 15.5602 80.5497 16.2368C80.5497 16.575 80.8034 16.7442 81.3108 16.7442H81.4376L81.5645 16.871V16.9979C81.4799 17.5053 81.2685 17.759 80.9302 17.759C80.592 17.759 80.296 17.5053 80.0423 16.9979L79.9154 16.4905C80 15.4757 80.1691 14.7146 80.4228 14.2072C80.6765 13.7843 80.9725 13.4461 81.3108 13.1924ZM11.9239 13.4461C11.4165 15.222 11.1628 16.1945 11.1628 16.3636C11.1628 16.7865 11.3742 16.9979 11.797 16.9979H12.0507V17.1247V17.3784C12.0507 17.7167 11.8816 17.9281 11.5433 18.0127C11.0359 17.9281 10.7822 17.8013 10.7822 17.6321C10.5285 17.3784 10.4017 17.0402 10.4017 16.6173C10.4017 15.518 10.7822 14.5877 11.5433 13.8266L11.9239 13.4461ZM98.4355 13.9535C97.8436 15.6448 97.5476 16.575 97.5476 16.7442C97.5476 17.2516 97.759 17.5053 98.1818 17.5053H98.3087H98.5624V17.6321C98.5624 18.055 98.3932 18.3087 98.055 18.3932H97.8013C97.5476 18.3932 97.2939 18.1818 97.0402 17.759L96.9133 17.1247C96.9133 16.1099 97.2516 15.1797 97.9281 14.334L98.4355 13.9535ZM115.18 13.9535H115.307C115.645 13.9535 115.983 14.2495 116.321 14.8414C116.321 14.926 116.194 15.0951 115.941 15.3488H115.814C115.476 15.0951 115.222 14.9683 115.053 14.9683H114.926C114.588 14.9683 114.123 16.0254 113.531 18.1395C113.108 17.0402 112.727 16.4059 112.389 16.2368C112.22 16.3213 112.051 16.3636 111.882 16.3636V16.2368V16.3636C111.628 16.2791 111.501 15.9831 111.501 15.4757C111.501 15.1374 111.628 14.9683 111.882 14.9683C112.474 14.9683 112.854 15.3065 113.023 15.9831C113.108 16.2368 113.277 16.4905 113.531 16.7442H113.658C114.165 14.8837 114.672 13.9535 115.18 13.9535ZM62.0296 14.5877C62.0296 18.3932 61.9873 20.296 61.9027 20.296C61.7336 20.5497 61.4799 20.8457 61.1416 21.1839V21.0571L60.888 14.5877H62.0296ZM5.96195 15.8562C6.63848 15.9408 7.65328 16.1522 9.00634 16.4905C9.09091 16.6596 9.13319 16.8287 9.13319 16.9979C9.13319 17.2516 8.96406 17.5898 8.62579 18.0127C8.20296 18.7738 7.44186 19.3235 6.34249 19.6617C5.75053 19.8309 5.28541 19.9154 4.94715 19.9154C6.46935 19.2389 7.35729 18.6892 7.61099 18.2664L7.73784 18.1395C7.39958 17.8858 6.55391 17.7167 5.20085 17.6321C5.03171 17.6321 4.94715 17.5476 4.94715 17.3784C5.11628 16.9556 5.45455 16.4482 5.96195 15.8562ZM57.9704 17.2516C59.1543 17.759 59.7463 18.055 59.7463 18.1395L58.8583 19.9154C57.759 19.408 57.167 19.112 57.0825 19.0275V18.9006C57.5899 17.8013 57.8858 17.2516 57.9704 17.2516ZM112.896 18.2664V18.5201C112.896 18.6892 112.77 19.1543 112.516 19.9154C112.431 20 112.389 20.1691 112.389 20.4228V20.6765C112.389 21.0994 112.643 21.3108 113.15 21.3108C113.573 21.3108 113.953 21.0148 114.292 20.4228C114.123 20.1691 113.827 20.0423 113.404 20.0423H113.023H112.896C113.235 19.5349 113.446 19.2812 113.531 19.2812C114.123 19.2812 114.588 19.5772 114.926 20.1691C114.757 20.7611 114.503 21.2262 114.165 21.5645C113.658 21.9027 113.235 22.0719 112.896 22.0719H112.77C112.347 22.0719 112.051 21.6913 111.882 20.9302V20.6765C111.882 20.0846 112.22 19.2812 112.896 18.2664ZM20.8034 18.3932L20.1691 20.4228C20.1691 20.7611 20.2537 21.0571 20.4228 21.3108H20.9302C20.9302 21.3108 20.9725 21.3531 21.0571 21.4376C20.9725 21.8605 20.8034 22.0719 20.5497 22.0719C20.0423 22.0719 19.7463 21.7336 19.6617 21.0571V20.9302C19.6617 19.8309 20.0423 18.9852 20.8034 18.3932ZM41.6068 18.9006C41.0994 20.592 40.8457 21.5222 40.8457 21.6913C40.8457 22.1142 40.9725 22.3256 41.2262 22.3256H41.6068H41.7336L41.8605 22.7061C41.8605 23.129 41.6068 23.3404 41.0994 23.3404C40.592 23.3404 40.296 22.9598 40.2114 22.1987V21.945C40.2114 20.8457 40.5497 19.8731 41.2262 19.0275L41.6068 18.9006ZM87.1459 19.1543L86.5116 21.3108C86.5116 21.7336 86.5962 21.945 86.7653 21.945H87.2727V22.0719C87.2727 22.4947 87.1036 22.7061 86.7653 22.7061C86.2579 22.6215 86.0042 22.2833 86.0042 21.6913C86.0042 20.9302 86.2579 20.1691 86.7653 19.408L87.1459 19.1543ZM24.3552 19.2812C23.9323 20.6342 23.7209 21.3953 23.7209 21.5645C23.7209 21.9027 23.9323 22.0719 24.3552 22.0719H24.482V22.3256C24.3975 22.7484 24.2706 22.9598 24.1015 22.9598H23.9746C23.6364 22.9598 23.3827 22.6638 23.2135 22.0719V21.8182C23.2135 21.2262 23.4249 20.5497 23.8478 19.7886L24.3552 19.2812ZM55.5603 19.7886C55.0529 21.3953 54.7992 22.2833 54.7992 22.4524C54.7992 22.7907 54.8837 23.0444 55.0529 23.2135H55.4334H55.814V23.3404V23.4672C55.6448 23.9746 55.4334 24.2283 55.1797 24.2283H55.0529C54.4609 24.1438 54.1649 23.7209 54.1649 22.9598V22.7061C54.1649 21.5222 54.5877 20.5497 55.4334 19.7886L55.5603 19.6617V19.7886ZM71.9239 20.296V20.4228C71.9239 20.592 72.093 20.7188 72.4313 20.8034H72.5581C72.8118 20.7188 72.9387 20.5497 72.9387 20.296C72.9387 20.1268 72.8118 20.0423 72.5581 20.0423H72.3044C72.1353 20.0423 72.0085 20.1268 71.9239 20.296ZM35.0106 20.1691C35.7717 21.0148 36.1522 21.9027 36.1522 22.833V23.2135C36.1522 23.6364 36.0677 24.1438 35.8985 24.7357C35.8985 23.5518 35.5603 22.4101 34.8837 21.3108C34.7146 21.1416 34.63 21.0148 34.63 20.9302L35.0106 20.1691ZM27.907 20.8034L29.8097 21.6913C29.2178 22.8753 28.8795 23.4672 28.7949 23.4672C27.611 22.9598 27.019 22.7061 27.019 22.7061V22.5793L27.907 20.8034ZM31.4588 21.0571C32.6427 21.649 33.2347 21.945 33.2347 21.945C32.6427 23.129 32.3467 23.7209 32.3467 23.7209C31.4165 23.2981 30.7822 23.0021 30.444 22.833V22.7061C31.0359 21.6068 31.3742 21.0571 31.4588 21.0571ZM13.4461 21.8182H13.5729C13.4038 22.4101 13.2347 22.7061 13.0655 22.7061C10.2748 24.3129 8.58351 25.2431 7.99154 25.4968C8.07611 25.1586 8.28753 24.9049 8.62579 24.7357L13.4461 21.8182ZM82.3256 21.945C83.0021 21.945 83.3404 22.0719 83.3404 22.3256C83.3404 22.5793 83.0021 23.4249 82.3256 24.8626V24.9894V25.1163C82.4101 25.5391 82.7061 25.7505 83.2135 25.7505H83.5941C84.2706 25.7505 85.2431 25.3277 86.5116 24.482C86.8499 24.482 87.019 24.482 87.019 24.482H87.1459C85.5391 26.0042 84.2283 26.7653 83.2135 26.7653H82.833C82.241 26.7653 81.8182 26.427 81.5645 25.7505V25.4968C81.5645 24.9894 81.9027 24.2283 82.5793 23.2135V23.0867C82.5793 22.9175 82.2833 22.833 81.6913 22.833C81.5222 22.833 81.2262 23.0444 80.8034 23.4672H80.5497C80.8879 22.4524 81.4799 21.945 82.3256 21.945ZM94.5032 22.7061C94.4186 23.129 94.2072 23.4249 93.8689 23.5941L91.3319 25.2431C91.3319 24.9049 91.6279 24.6089 92.2199 24.3552L94.5032 22.7061ZM78.1395 22.7061C77.6321 24.482 77.3784 25.4968 77.3784 25.7505C77.3784 26.1733 77.5476 26.3848 77.8858 26.3848H78.2664H78.3932V26.5116C78.3932 26.8499 78.2241 27.1036 77.8858 27.2727H77.6321C77.0402 27.1881 76.7442 26.7653 76.7442 26.0042C76.7442 24.9048 77.0825 23.9323 77.759 23.0867L78.1395 22.7061ZM90.3171 22.833H90.5708C90.6554 22.833 90.6977 22.8753 90.6977 22.9598C90.6977 23.8055 90.5285 24.5666 90.1903 25.2431C90.0211 25.4122 89.852 25.4968 89.6829 25.4968C90.0211 23.7209 90.2326 22.833 90.3171 22.833ZM48.7104 24.7357C48.6258 25.4123 48.4989 25.7505 48.3298 25.7505L43.129 28.2875C43.2981 27.6955 43.4672 27.3996 43.6364 27.3996L48.7104 24.7357ZM18.2664 27.2727C18.0973 27.8647 17.9704 28.1607 17.8858 28.1607L12.8118 31.2051C12.8964 30.6131 13.0233 30.3171 13.1924 30.3171C16.1522 28.4566 17.8436 27.4418 18.2664 27.2727ZM104.017 27.5264C104.186 27.611 104.271 27.6955 104.271 27.7801C104.101 28.5412 103.932 28.9218 103.763 28.9218C103.594 29.0063 103.383 29.0486 103.129 29.0486C102.96 29.0486 102.791 28.964 102.622 28.7949C102.283 29.1332 101.903 29.3023 101.48 29.3023H101.226C100.803 29.3023 100.592 29.3023 100.592 29.3023C100.254 29.3023 99.5772 29.6406 98.5624 30.3171L96.6596 31.3319C96.7442 30.9936 97.2093 30.6554 98.055 30.3171L99.704 29.0486C100.296 28.6258 100.803 28.4144 101.226 28.4144L102.368 28.5412C102.452 28.2875 102.664 28.1607 103.002 28.1607H103.129H103.256H103.383H103.51H103.89C103.975 27.7378 104.017 27.5264 104.017 27.5264ZM114.419 27.907C113.911 28.7526 113.615 29.1755 113.531 29.1755L107.822 31.4588V31.3319C108.161 30.7399 108.414 30.444 108.584 30.444L114.419 27.907ZM118.097 28.1607C119.281 28.6681 119.915 28.9218 120 28.9218L118.985 30.5708L116.956 29.6829C117.548 28.8372 117.928 28.3298 118.097 28.1607Z" fill="white"/>
</g>
<defs>
<clipPath id="clip0">
<rect width="120" height="31.8393" fill="white"/>
</clipPath>
</defs>
</svg>
