<svg width="180" height="10" viewBox="0 0 180 10" fill="none" xmlns="http://www.w3.org/2000/svg">
<path fill-rule="evenodd" clip-rule="evenodd" d="M95.6084 4.75052C95.6084 7.37416 93.4816 9.50104 90.8579 9.50104C88.2343 9.50104 86.1074 7.37416 86.1074 4.75052C86.1074 2.12688 88.2343 0 90.8579 0C93.4816 0 95.6084 2.12688 95.6084 4.75052ZM103.992 4.7505C103.992 6.75681 102.365 8.38325 100.359 8.38325C98.3526 8.38325 96.7262 6.75681 96.7262 4.7505C96.7262 2.74419 98.3526 1.11775 100.359 1.11775C102.365 1.11775 103.992 2.74419 103.992 4.7505ZM118.243 6.70662C119.324 6.70662 120.199 5.83085 120.199 4.75052C120.199 3.6702 119.324 2.79443 118.243 2.79443C117.163 2.79443 116.287 3.6702 116.287 4.75052C116.287 5.83085 117.163 6.70662 118.243 6.70662ZM64.3109 4.75052C64.3109 5.83085 63.4351 6.70662 62.3548 6.70662C61.2745 6.70662 60.3987 5.83085 60.3987 4.75052C60.3987 3.6702 61.2745 2.79443 62.3548 2.79443C63.4351 2.79443 64.3109 3.6702 64.3109 4.75052ZM80.798 8.38325C82.8043 8.38325 84.4307 6.75681 84.4307 4.7505C84.4307 2.74419 82.8043 1.11775 80.798 1.11775C78.7917 1.11775 77.1652 2.74419 77.1652 4.7505C77.1652 6.75681 78.7917 8.38325 80.798 8.38325ZM70.4306 1.11775L73.9873 4.67447L70.4306 8.23119L66.8739 4.67447L70.4306 1.11775ZM114.458 4.67447L110.902 1.11775L107.345 4.67447L110.902 8.23119L114.458 4.67447Z" fill="#EEEEEE"/>
<rect y="4.18604" width="180" height="0.598007" fill="#EEEEEE"/>
</svg>
