<svg width="180" height="10" viewBox="0 0 180 10" fill="none" xmlns="http://www.w3.org/2000/svg">
<path fill-rule="evenodd" clip-rule="evenodd" d="M95.6084 4.75051C95.6084 7.37415 93.4815 9.50103 90.8579 9.50103C88.2342 9.50103 86.1073 7.37415 86.1073 4.75051C86.1073 2.12688 88.2342 0 90.8579 0C93.4815 0 95.6084 2.12688 95.6084 4.75051ZM103.992 4.75044C103.992 6.75675 102.365 8.38319 100.359 8.38319C98.3526 8.38319 96.7262 6.75675 96.7262 4.75044C96.7262 2.74413 98.3526 1.11769 100.359 1.11769C102.365 1.11769 103.992 2.74413 103.992 4.75044ZM118.243 6.70706C119.324 6.70706 120.199 5.83129 120.199 4.75097C120.199 3.67064 119.324 2.79487 118.243 2.79487C117.163 2.79487 116.287 3.67064 116.287 4.75097C116.287 5.83129 117.163 6.70706 118.243 6.70706ZM64.311 4.75097C64.311 5.83129 63.4352 6.70706 62.3549 6.70706C61.2745 6.70706 60.3988 5.83129 60.3988 4.75097C60.3988 3.67064 61.2745 2.79487 62.3549 2.79487C63.4352 2.79487 64.311 3.67064 64.311 4.75097ZM80.798 8.38319C82.8043 8.38319 84.4308 6.75675 84.4308 4.75044C84.4308 2.74413 82.8043 1.11769 80.798 1.11769C78.7917 1.11769 77.1653 2.74413 77.1653 4.75044C77.1653 6.75675 78.7917 8.38319 80.798 8.38319ZM70.4305 1.11769L73.9873 4.67441L70.4305 8.23113L66.8738 4.67441L70.4305 1.11769ZM114.459 4.67441L110.902 1.11769L107.345 4.67441L110.902 8.23113L114.459 4.67441Z" fill="#DB9E30"/>
<rect y="4.18616" width="180" height="0.598007" fill="#DB9E30"/>
</svg>
