<svg width="152" height="152" viewBox="0 0 152 152" fill="none" xmlns="http://www.w3.org/2000/svg">
<path d="M148.873 68.3719L134.778 54.2768C133.581 53.0808 132.923 51.4903 132.923 49.7989V29.8651C132.923 23.9678 128.032 19.0774 122.135 19.0774H116.606C115.376 19.0774 114.378 20.0744 114.378 21.3049C114.378 22.5354 115.376 23.5324 116.606 23.5324H122.135C123.067 23.5324 123.949 23.74 124.747 24.103L120.862 27.9874H102.201C98.1296 27.9874 94.3018 26.402 91.423 23.5229L78.2275 10.3277V4.83409C79.0481 5.14119 79.8189 5.61877 80.4779 6.27752L94.5733 20.3729C96.6107 22.41 99.3197 23.5324 102.201 23.5324H106.076C107.306 23.5324 108.303 22.5354 108.303 21.3049C108.303 20.0744 107.306 19.0774 106.076 19.0774H102.201C100.51 19.0774 98.9193 18.4186 97.7233 17.2226L83.6279 3.12722C79.458 -1.04208 72.542 -1.04208 68.3721 3.12722L54.2767 17.2226C53.0807 18.4186 51.4906 19.0774 49.7988 19.0774H29.865C23.9674 19.0774 19.0773 23.9678 19.0773 29.8651V49.7989C19.0773 51.4903 18.4186 53.0808 17.2225 54.2765L3.12744 68.3719C-0.996425 72.4958 -1.00504 79.4949 3.12744 83.628L17.2225 97.7234C18.4186 98.9191 19.0773 100.51 19.0773 102.201V122.135C19.0773 128.083 23.9167 132.922 29.865 132.922H49.7988C51.4903 132.922 53.0804 133.581 54.2767 134.777L68.3721 148.873C72.542 153.042 79.458 153.042 83.6279 148.873L97.7233 134.777C98.9196 133.581 100.51 132.922 102.201 132.922H122.135C128.032 132.922 132.923 128.032 132.923 122.135V102.201C132.923 100.51 133.581 98.9194 134.778 97.7237L148.873 83.6283C152.996 79.5044 153.006 72.505 148.873 68.3719ZM145.723 71.5225C146.372 72.1712 146.856 72.9386 147.169 73.7726H141.673L128.477 60.5768C125.598 57.6977 124.013 53.8699 124.013 49.7989V31.1377L127.897 27.2532C128.26 28.0507 128.468 28.9334 128.468 29.8651V49.7989C128.468 52.6801 129.59 55.3891 131.627 57.4271L145.723 71.5225ZM49.7988 23.5324C52.6804 23.5324 55.3893 22.4103 57.4267 20.3729L71.5221 6.27752C72.1812 5.61847 72.9519 5.14119 73.7725 4.83409V10.3277L60.577 23.5232C57.6982 26.402 53.8704 27.9874 49.7988 27.9874H31.1376L27.2532 24.103C28.0506 23.74 28.9333 23.5324 29.865 23.5324H49.7988ZM20.3728 57.4271C22.4103 55.3894 23.5326 52.6807 23.5326 49.7989V29.8651C23.5326 28.9334 23.7402 28.0507 24.1032 27.2532L27.9877 31.1377V49.7992C27.9877 53.8708 26.4023 57.6986 23.5231 60.5771L10.3276 73.7729H4.83104C5.14438 72.9386 5.62849 72.1715 6.27744 71.5228L20.3728 57.4271ZM6.27744 80.4777C5.62849 79.829 5.14408 79.0616 4.83104 78.2276H10.3274L23.5228 91.4234C26.4017 94.3019 27.9874 98.1297 27.9874 102.201V120.862L24.1029 124.747C23.7399 123.95 23.5323 123.067 23.5323 122.135V102.201C23.5323 99.3198 22.4103 96.6111 20.3725 94.5731L6.27744 80.4777ZM57.4267 131.627C55.389 129.59 52.6801 128.467 49.7988 128.467H29.865C28.9333 128.467 28.0506 128.26 27.2532 127.897L31.1376 124.012H39.3361C40.5663 124.012 41.5636 123.015 41.5636 121.785C41.5636 120.554 40.5663 119.557 39.3361 119.557H32.4427V102.201C32.4427 96.9396 30.3937 91.9933 26.6734 88.2731L14.4007 76.0004L26.6734 63.7277C30.3937 60.0075 32.4427 55.0609 32.4427 49.7995V32.4431H49.7991C55.0608 32.4431 60.0074 30.3943 63.7273 26.6738L76 14.4011L88.2727 26.6735C91.993 30.394 96.9395 32.4431 102.201 32.4431H119.557V49.7995C119.557 55.0606 121.606 60.0069 125.326 63.7277L137.6 76.0007L125.327 88.2737C121.606 91.9942 119.558 96.9408 119.558 102.202V119.558H102.201C96.9401 119.558 91.9935 121.607 88.273 125.328L76.0003 137.6L63.7276 125.328C60.0068 121.607 55.0602 119.558 49.7994 119.558C48.5693 119.558 47.5719 120.555 47.5719 121.786C47.5719 123.016 48.5693 124.013 49.7994 124.013C53.8707 124.013 57.6985 125.599 60.5776 128.478L73.7731 141.673V147.167C72.9525 146.86 72.1818 146.382 71.5227 145.723L57.4267 131.627ZM102.201 128.467C99.32 128.467 96.611 129.59 94.5733 131.627L80.4779 145.723C79.8189 146.382 79.0481 146.859 78.2275 147.166V141.673L91.423 128.478C94.3021 125.598 98.1302 124.013 102.201 124.013H120.862L124.747 127.897C123.949 128.26 123.067 128.468 122.135 128.468H102.201V128.467ZM131.627 94.5734C129.589 96.6108 128.467 99.3198 128.467 102.201V122.135C128.467 123.067 128.26 123.95 127.897 124.747L124.012 120.862V102.201C124.012 98.1303 125.598 94.3022 128.477 91.4234L141.672 78.2276H147.169C146.855 79.0619 146.371 79.829 145.722 80.4777L131.627 94.5734Z" fill="#DB9E30"/>
<path d="M65.9836 103.757C67.8675 107.996 71.9522 113.139 80.7134 113.563C80.7502 113.564 80.7865 113.565 80.8227 113.565C82.0036 113.565 82.9881 112.637 83.0458 111.445C83.1052 110.216 82.1571 109.172 80.9284 109.113C78.6555 109.003 76.8004 108.474 75.2836 107.682L108.857 93.2007C114.335 91.1687 113.554 82.9194 107.786 81.9524L85.1111 78.1514L114.175 71.1888C118.842 70.0703 120.198 63.7233 116.315 60.8193L110.947 56.8035C108.879 55.2561 106.036 55.1151 103.822 56.4388C101.939 57.5641 100.132 60.2621 100.801 62.5532L102.781 69.337L83.3855 73.9836C81.3683 74.4671 80.0095 76.2527 80.0811 78.3254C80.1527 80.3985 81.6314 82.0858 83.6772 82.4285L107.049 86.3457C108.675 86.6186 108.372 88.5562 107.152 89.0843L71.5144 104.456C68.5224 100.452 68.517 95.2786 68.5203 94.9373C68.5203 94.926 68.5206 94.9147 68.5206 94.9035V63.4819C68.5206 62.2514 67.5233 61.2544 66.2931 61.2544C65.0629 61.2544 64.0656 62.2514 64.0656 63.4819V92.3189H45.6432C41.3141 92.3189 37.7922 88.7971 37.7922 84.468V80.2812C37.7922 79.0507 36.7949 78.0537 35.5647 78.0537C34.3345 78.0537 33.3372 79.0507 33.3372 80.2812V84.468C33.3372 91.2536 38.8576 96.774 45.6432 96.774H64.1713C64.3448 98.4716 64.7989 101.091 65.9836 103.757ZM106.242 60.1896C106.565 60.0275 107.411 59.7215 108.279 60.3711L113.647 64.3868C114.586 65.0893 114.277 66.5832 113.137 66.8561L107.118 68.2981L105.182 61.6645C105.292 60.7628 105.946 60.3375 106.242 60.1896Z" fill="#DB9E30"/>
<path d="M70.5872 54.4042C72.2973 54.4042 73.859 53.7576 75.0422 52.697C76.2255 53.7576 77.7868 54.4042 79.4969 54.4042C83.1815 54.4042 86.1795 51.4063 86.1795 47.7217V40.6875C86.1795 39.457 85.1821 38.46 83.952 38.46C82.7218 38.46 81.7245 39.457 81.7245 40.6875V47.7217C81.7245 48.9501 80.7253 49.9492 79.4969 49.9492C78.2685 49.9492 77.2694 48.9501 77.2694 47.7217V40.6875C77.2694 39.457 76.2721 38.46 75.0419 38.46C73.8117 38.46 72.8144 39.457 72.8144 40.6875V47.7217C72.8144 48.9501 71.8153 49.9492 70.5869 49.9492C69.3588 49.9492 68.3594 48.9501 68.3594 47.7217V40.6875C68.3594 39.457 67.362 38.46 66.1319 38.46C64.9017 38.46 63.9044 39.457 63.9044 40.6875V47.7217C63.9047 51.4063 66.9023 54.4042 70.5872 54.4042Z" fill="#DB9E30"/>
</svg>
