<svg width="152" height="152" viewBox="0 0 152 152" fill="none" xmlns="http://www.w3.org/2000/svg">
<g clip-path="url(#clip0)">
<path d="M79.3266 24.2625L77.9369 28.4932C84.5878 30.6776 87.8207 33.09 87.8207 35.8682H92.2739C92.2739 29.277 84.8847 26.0879 79.3266 24.2625Z" fill="#DB9E30"/>
<path d="M87.8207 40.321H92.2738V44.7742H87.8207V40.321Z" fill="#DB9E30"/>
<path d="M17.8125 64.6072H22.2656V69.0603H17.8125V64.6072Z" fill="#DB9E30"/>
<path d="M129.734 64.6072H134.188V69.0603H129.734V64.6072Z" fill="#DB9E30"/>
<path d="M145.186 138.084L144.342 124.581L139.897 124.859L140.724 138.084H123.198L125.147 106.912H138.776L139.62 120.415L144.064 120.137L143.114 104.929L148.272 86.8727H143.094V58.3558L148.609 44.5678H143.094V38.5255C145.333 34.8561 146.103 31.3613 145.376 28.1295C144.109 22.4945 138.632 18.7085 133.13 15.3134L131.961 14.592L130.792 15.3134C125.29 18.7085 119.813 22.4945 118.546 28.1295C117.82 31.3613 118.589 34.8561 120.829 38.5255V44.5678H115.313L120.828 58.3561V86.8727H115.65L120.809 104.929L118.736 138.084H109.695V58.8567L101.413 51.0759C104.837 45.092 105.553 38.4388 103.344 32.5633C101.125 26.6609 94.9531 18.7117 78.2266 13.8418V1.11328H73.7734V13.8433C65.1097 16.3658 58.4357 19.9565 53.9211 24.5305L57.0905 27.6587C61.2305 23.4644 67.5901 20.1623 76 17.8392C88.4515 21.2794 96.4603 26.9061 99.1761 34.1305C100.981 38.9334 100.325 44.2549 97.3397 49.2272H54.6633C50.9313 43.0145 50.8722 36.3423 54.5514 30.766L50.8342 28.3136C46.3211 35.1542 46.2644 43.543 50.586 51.077L42.3047 58.857V138.084H33.2637L31.1915 104.929L36.3503 86.873H31.1719V58.3564L36.6872 44.5684H31.1719V38.5264C33.4112 34.857 34.1813 31.3622 33.4545 28.1301C32.1875 22.4951 26.7101 18.7091 21.2085 15.314L20.0391 14.5923L18.87 15.3137C13.3683 18.7091 7.89064 22.4951 6.62388 28.1301C5.89713 31.3619 6.66722 34.8567 8.90625 38.5261V44.5681H3.3912L8.90625 58.3561V86.873H3.72816L8.88695 104.929L6.81477 138.084H0V150.887H152V138.084H145.186ZM142.368 91.3262L139.188 102.459H124.734L121.553 91.3262H142.368ZM124.562 55.7009L121.89 49.0212H142.032L139.36 55.7009H124.562ZM122.89 29.1068C123.704 25.4879 127.687 22.5316 131.961 19.8324C136.235 22.5313 140.218 25.4876 141.032 29.1068C141.471 31.0591 141.007 33.212 139.616 35.6618H124.305C122.915 33.2123 122.451 31.0591 122.89 29.1068ZM125.281 40.1149H138.641V44.5681H125.281V40.1149ZM125.281 60.154H138.641V86.8727H125.281V60.154ZM54.3189 53.6803H97.6811L105.242 60.7834V67.0394H46.7578V60.7834L54.3189 53.6803ZM46.7578 71.4925H105.242V138.084H97.4878V101.887C97.4878 93.9829 86.9286 87.096 78.4442 81.5622L76 79.9639L73.552 81.5649C65.0691 87.0972 54.5119 93.9826 54.5119 101.887V138.084H46.7578V71.4925ZM84.1287 138.084H67.8713V102.771C68.3599 102.048 70.0723 100.114 75.9997 95.9948C81.9271 100.114 83.6398 102.048 84.1284 102.772V138.084H84.1287ZM88.4094 101.355C87.7761 99.8411 85.9355 97.3474 77.2504 91.452L76 90.603L74.7496 91.4518C66.0639 97.3474 64.2236 99.8411 63.5906 101.355L63.4181 101.767V138.084H58.965V101.887C58.965 96.3944 69.2072 89.7147 75.9846 85.2946L76 85.2845L76.0116 85.2922C82.7904 89.7135 93.035 96.395 93.035 101.887V138.084H88.5819V101.767L88.4094 101.355ZM12.8122 102.459L9.63152 91.3262H30.4466L27.2659 102.459H12.8122ZM12.6403 55.7009L9.96847 49.0212H30.1097L27.4378 55.7009H12.6403ZM10.9683 29.1068C11.7821 25.4879 15.7647 22.5316 20.0394 19.8324C24.3138 22.5316 28.2963 25.4876 29.1101 29.1068C29.5492 31.0591 29.0851 33.212 27.6946 35.6618H12.3835C10.9933 33.2123 10.5293 31.0594 10.9683 29.1068ZM13.3594 40.1149H26.7188V44.5681H13.3594V40.1149ZM13.3594 60.154H26.7188V86.8727H13.3594V60.154ZM13.2246 106.912H26.8535L28.8019 138.084H11.2762L13.2246 106.912ZM147.547 146.434H4.45312V142.537H147.547V146.434Z" fill="#DB9E30"/>
</g>
<defs>
<clipPath id="clip0">
<rect width="152" height="152" fill="white"/>
</clipPath>
</defs>
</svg>
