<svg width="196" height="79" viewBox="0 0 196 79" fill="none" xmlns="http://www.w3.org/2000/svg">
<path d="M16.352 49.571C16.39 49.951 16.409 50.4323 16.409 51.015C16.409 51.585 16.295 52.288 16.067 53.124C15.839 53.9473 15.4273 54.6757 14.832 55.309C13.616 56.6137 11.944 57.266 9.816 57.266C7.232 57.266 5.19267 56.6327 3.698 55.366C2.20333 54.0867 1.456 52.421 1.456 50.369C1.456 48.3043 2.20967 46.6323 3.717 45.353C5.237 44.0737 7.23833 43.434 9.721 43.434C10.671 43.434 11.5767 43.529 12.438 43.719C13.2993 43.909 14.015 44.156 14.585 44.46L14.623 47.728H14.471C14.2557 46.9173 13.8947 46.2397 13.388 45.695C12.476 44.7197 11.2473 44.232 9.702 44.232C8.15667 44.232 6.909 44.783 5.959 45.885C5.02167 46.987 4.553 48.45 4.553 50.274C4.553 52.0853 5.04067 53.561 6.016 54.701C7.004 55.841 8.35933 56.43 10.082 56.468C11.944 56.468 13.426 55.8727 14.528 54.682C15.63 53.4913 16.181 51.8763 16.181 49.837C16.181 49.7483 16.181 49.6597 16.181 49.571H16.352ZM17.6309 56.81C17.9603 56.81 18.2389 56.696 18.4669 56.468C18.7076 56.2273 18.8343 55.9423 18.8469 55.613V45.03C18.8089 44.5867 18.5999 44.2573 18.2199 44.042C18.0299 43.9407 17.8336 43.89 17.6309 43.89H17.3839V43.7H24.6609C25.0536 43.7 25.4843 43.662 25.9529 43.586C26.4216 43.51 26.7509 43.434 26.9409 43.358V46.683H26.7509V46.455C26.7509 45.885 26.5799 45.429 26.2379 45.087C25.9086 44.7323 25.4589 44.5423 24.8889 44.517H21.6969V50.046H24.2049C24.6736 50.0333 25.0599 49.875 25.3639 49.571C25.6679 49.2543 25.8199 48.868 25.8199 48.412V48.241H26.0099V52.63H25.8199V52.478C25.8199 51.8447 25.5666 51.376 25.0599 51.072C24.8066 50.9327 24.5279 50.8567 24.2239 50.844H21.6969V56.183H24.1859C25.1106 56.183 25.8833 55.917 26.5039 55.385C27.1373 54.853 27.6059 54.0993 27.9099 53.124H28.0999L27.2259 57H17.3839V56.81H17.6309ZM44.0953 43.89C43.7786 43.89 43.5063 44.004 43.2783 44.232C43.0503 44.4473 42.9299 44.7133 42.9173 45.03V54.834C42.9173 55.6827 42.9743 56.3983 43.0883 56.981L43.1453 57.266H42.9743L33.3793 48.127V55.67C33.3793 55.9867 33.4933 56.259 33.7213 56.487C33.9493 56.7023 34.2216 56.81 34.5383 56.81H34.8993V57H29.1423V56.81H29.4843C29.8136 56.81 30.0923 56.7023 30.3203 56.487C30.5483 56.259 30.6623 55.9803 30.6623 55.651V45.79C30.6623 44.954 30.6053 44.2573 30.4913 43.7L30.4533 43.415H30.6243L40.2193 52.554V45.049C40.2066 44.7197 40.0863 44.4473 39.8583 44.232C39.6303 44.004 39.3579 43.89 39.0413 43.89H38.6993V43.7H44.4563V43.89H44.0953ZM52.7827 44.479V55.632C52.7954 55.9613 52.9157 56.24 53.1437 56.468C53.3844 56.696 53.6694 56.81 53.9987 56.81H54.2267L54.2457 57H48.4697V56.81H48.7167C49.0334 56.81 49.3057 56.696 49.5337 56.468C49.7744 56.24 49.9074 55.9677 49.9327 55.651V44.479H47.3677C46.7851 44.4917 46.3227 44.6753 45.9807 45.03C45.6387 45.3847 45.4677 45.847 45.4677 46.417V46.645H45.2777V43.339C45.4551 43.415 45.7717 43.491 46.2277 43.567C46.6964 43.643 47.1271 43.681 47.5197 43.681H55.1767C55.7974 43.6683 56.3041 43.6177 56.6967 43.529C57.0894 43.4403 57.3301 43.377 57.4187 43.339V46.645H57.2287V46.417C57.2287 45.847 57.0577 45.3847 56.7157 45.03C56.3737 44.6753 55.9114 44.4917 55.3287 44.479H52.7827ZM63.708 44.536H62.891C62.8657 44.536 62.8467 44.536 62.834 44.536V55.613C62.8467 56.0817 63.0493 56.43 63.442 56.658C63.632 56.7593 63.8347 56.81 64.05 56.81H64.297V57H58.521V56.81H58.768C59.224 56.81 59.5723 56.6137 59.813 56.221C59.9143 56.0437 59.9713 55.8473 59.984 55.632V45.087C59.9713 44.7577 59.8447 44.479 59.604 44.251C59.376 44.0103 59.0973 43.89 58.768 43.89H58.521V43.7H65.038C66.2667 43.7 67.3053 43.966 68.154 44.498C68.5847 44.764 68.9267 45.1377 69.18 45.619C69.4333 46.0877 69.56 46.626 69.56 47.234C69.56 47.8293 69.4523 48.3803 69.237 48.887C69.0343 49.3937 68.686 49.837 68.192 50.217C67.7107 50.597 67.128 50.825 66.444 50.901C67.1787 51.1417 67.8247 51.699 68.382 52.573C69.75 54.7643 70.7633 56.069 71.422 56.487C71.7513 56.6897 72.163 56.7973 72.657 56.81V57H70.795C69.7183 57 68.819 56.8543 68.097 56.563C67.375 56.259 66.786 55.746 66.33 55.024C66.102 54.6567 65.8107 54.1057 65.456 53.371C65.1013 52.6237 64.867 52.0917 64.753 51.775C64.411 51.015 63.9803 50.5907 63.461 50.502V50.312H64.05C64.62 50.312 65.1203 50.141 65.551 49.799C65.9943 49.457 66.292 48.8997 66.444 48.127C66.4947 47.861 66.52 47.652 66.52 47.5C66.52 46.4613 66.311 45.714 65.893 45.258C65.475 44.7893 64.9367 44.5487 64.278 44.536C64.1513 44.536 63.9613 44.536 63.708 44.536ZM85.6411 56.81H85.8121V57H79.7511V56.81H79.9221C80.2008 56.81 80.4035 56.7277 80.5301 56.563C80.6695 56.3857 80.7391 56.221 80.7391 56.069C80.7391 55.917 80.7075 55.765 80.6441 55.613L79.7131 53.276H75.2671L74.2791 55.613C74.2158 55.7777 74.1841 55.936 74.1841 56.088C74.1841 56.2273 74.2475 56.3857 74.3741 56.563C74.5135 56.7277 74.7288 56.81 75.0201 56.81H75.1721V57H71.1061V56.81H71.2771C71.5685 56.81 71.8598 56.7213 72.1511 56.544C72.4425 56.3667 72.6831 56.1007 72.8731 55.746L77.2621 45.809C77.8575 44.555 78.1741 43.7253 78.2121 43.32H78.3831L84.0261 55.708C84.2161 56.0753 84.4568 56.354 84.7481 56.544C85.0395 56.7213 85.3371 56.81 85.6411 56.81ZM75.5901 52.478H79.3901L77.5471 47.804L75.5901 52.478ZM86.2647 56.81C86.5941 56.81 86.8727 56.696 87.1007 56.468C87.3414 56.2273 87.4681 55.9423 87.4807 55.613V45.087C87.4681 44.7577 87.3414 44.479 87.1007 44.251C86.8727 44.0103 86.5941 43.89 86.2647 43.89H86.0177V43.7H91.7937L91.7747 43.89H91.5467C91.2174 43.89 90.9324 44.0103 90.6917 44.251C90.4511 44.479 90.3307 44.7577 90.3307 45.087V56.183H92.8197C93.7444 56.183 94.5171 55.917 95.1377 55.385C95.7711 54.853 96.2397 54.0993 96.5437 53.124H96.7337L95.8597 57H86.0177V56.81H86.2647ZM99.8537 42.446C100.576 42.142 101.203 41.99 101.735 41.99C102.267 41.99 102.735 42.0407 103.141 42.142C103.546 42.2433 103.958 42.4143 104.376 42.655C104.806 42.883 105.205 43.168 105.573 43.51C106.282 44.1813 106.884 44.9413 107.378 45.79L111.178 52.915L116.688 43.434H116.859L118.835 54.606C119.139 56.3287 119.664 57.6967 120.412 58.71C121.159 59.736 122.185 60.249 123.49 60.249C123.578 60.249 123.661 60.249 123.737 60.249V60.439C123.04 60.629 122.356 60.724 121.685 60.724C120.317 60.724 119.069 60.1857 117.942 59.109C116.852 58.083 116.111 56.582 115.719 54.606L114.788 49.077L111.216 55.271C110.734 56.069 110.487 56.772 110.475 57.38H110.304L105.573 48.412L104.642 56.012C104.604 56.3033 104.73 56.5377 105.022 56.715C105.136 56.791 105.256 56.829 105.383 56.829H105.687V57H101.716V56.81H102.02C102.349 56.81 102.64 56.715 102.894 56.525C103.16 56.3223 103.324 56.05 103.388 55.708L104.68 46.645C104.11 45.6317 103.457 44.7323 102.723 43.947C101.899 43.0603 101.038 42.617 100.139 42.617C100.05 42.617 99.9677 42.6233 99.8917 42.636L99.8537 42.446ZM128.425 43.434C130.769 43.434 132.631 44.0547 134.011 45.296C135.392 46.5373 136.082 48.222 136.082 50.35C136.082 52.478 135.392 54.1627 134.011 55.404C132.631 56.6453 130.769 57.266 128.425 57.266C126.082 57.266 124.22 56.6453 122.839 55.404C121.459 54.1627 120.768 52.478 120.768 50.35C120.768 48.944 121.079 47.7217 121.699 46.683C122.333 45.6317 123.226 44.8273 124.378 44.27C125.531 43.7127 126.88 43.434 128.425 43.434ZM125.1 54.834C125.924 55.9233 127.032 56.468 128.425 56.468C129.819 56.468 130.921 55.9233 131.731 54.834C132.555 53.732 132.966 52.2373 132.966 50.35C132.966 49.1087 132.783 48.0257 132.415 47.101C132.048 46.1763 131.522 45.467 130.838 44.973C130.154 44.479 129.35 44.232 128.425 44.232C127.032 44.232 125.924 44.783 125.1 45.885C124.29 46.9743 123.884 48.4627 123.884 50.35C123.884 52.2373 124.29 53.732 125.1 54.834ZM137.715 55.233C137.715 54.321 137.911 53.542 138.304 52.896H138.475C138.462 52.9973 138.456 53.0987 138.456 53.2C138.456 54.074 138.766 54.8403 139.387 55.499C140.02 56.145 140.881 56.468 141.971 56.468C142.819 56.468 143.478 56.2653 143.947 55.86C144.428 55.4547 144.669 54.9417 144.669 54.321C144.669 53.5737 144.162 52.9213 143.149 52.364L139.843 50.179C139.184 49.799 138.709 49.343 138.418 48.811C138.139 48.2663 138 47.7153 138 47.158C138 45.9673 138.373 45.049 139.121 44.403C139.881 43.757 140.85 43.434 142.028 43.434C142.724 43.434 143.586 43.4973 144.612 43.624H145.809L145.562 46.417H145.372C145.372 45.7583 145.125 45.2327 144.631 44.84C144.149 44.4347 143.503 44.232 142.693 44.232C141.705 44.232 140.989 44.536 140.546 45.144C140.318 45.4353 140.204 45.7647 140.204 46.132C140.204 46.74 140.647 47.3037 141.534 47.823L145.163 50.179C146.303 50.8377 146.873 51.8067 146.873 53.086C146.873 54.4413 146.41 55.48 145.486 56.202C144.574 56.9113 143.358 57.266 141.838 57.266C140.976 57.266 140.178 57.1647 139.444 56.962C138.722 56.7467 138.19 56.4617 137.848 56.107C137.759 55.8663 137.715 55.575 137.715 55.233ZM169.029 59.755C170.815 59.755 172.278 59.2927 173.418 58.368L173.532 58.444C173.469 59.47 172.987 60.344 172.088 61.066C171.075 61.8893 169.814 62.301 168.307 62.301C166.812 62.301 165.191 61.8767 163.443 61.028C162.658 60.6353 161.359 59.8563 159.548 58.691C159.041 58.349 158.465 58.0387 157.819 57.76C157.173 57.4813 156.571 57.3167 156.014 57.266C153.734 57.2153 151.923 56.5757 150.58 55.347C149.25 54.1057 148.585 52.44 148.585 50.35C148.585 48.944 148.895 47.7217 149.516 46.683C150.149 45.6317 151.042 44.8273 152.195 44.27C153.348 43.7127 154.697 43.434 156.242 43.434C158.585 43.434 160.447 44.0547 161.828 45.296C163.209 46.5373 163.899 48.222 163.899 50.35C163.899 52.0347 163.456 53.4533 162.569 54.606C161.682 55.7587 160.447 56.5377 158.864 56.943C159.662 57.1077 160.454 57.323 161.239 57.589C162.037 57.8677 163.177 58.2983 164.659 58.881C166.154 59.4637 167.61 59.755 169.029 59.755ZM152.917 45.885C152.106 46.9743 151.701 48.4627 151.701 50.35C151.701 52.2373 152.106 53.732 152.917 54.834C153.74 55.9233 154.849 56.468 156.242 56.468C157.635 56.468 158.737 55.9233 159.548 54.834C160.371 53.732 160.783 52.2373 160.783 50.35C160.783 49.1087 160.599 48.0257 160.232 47.101C159.865 46.1763 159.339 45.467 158.655 44.973C157.971 44.479 157.167 44.232 156.242 44.232C154.849 44.232 153.74 44.783 152.917 45.885ZM179.458 43.89H179.135C178.869 43.89 178.635 43.9787 178.432 44.156C178.242 44.3207 178.147 44.5297 178.147 44.783V52.193C178.147 53.751 177.66 54.986 176.684 55.898C175.709 56.81 174.373 57.266 172.675 57.266C170.674 57.266 169.141 56.8227 168.077 55.936C167.013 55.0367 166.481 53.7953 166.481 52.212V44.84C166.481 44.5613 166.38 44.3333 166.177 44.156C165.987 43.9787 165.753 43.89 165.474 43.89H165.17V43.7H170.642V43.89H170.338C170.06 43.89 169.825 43.9787 169.635 44.156C169.445 44.3207 169.344 44.536 169.331 44.802V52.06C169.331 53.4027 169.661 54.4667 170.319 55.252C170.978 56.0373 171.884 56.43 173.036 56.43C174.189 56.43 175.101 56.0627 175.772 55.328C176.444 54.5807 176.786 53.5737 176.798 52.307V44.802C176.798 44.536 176.697 44.3207 176.494 44.156C176.304 43.9787 176.07 43.89 175.791 43.89H175.487V43.7H179.458V43.89ZM180.931 56.81C181.26 56.81 181.539 56.696 181.767 56.468C182.007 56.2273 182.134 55.9423 182.147 55.613V45.03C182.109 44.5867 181.9 44.2573 181.52 44.042C181.33 43.9407 181.133 43.89 180.931 43.89H180.684V43.7H187.961C188.353 43.7 188.784 43.662 189.253 43.586C189.721 43.51 190.051 43.434 190.241 43.358V46.683H190.051V46.455C190.051 45.885 189.88 45.429 189.538 45.087C189.208 44.7323 188.759 44.5423 188.189 44.517H184.997V50.046H187.505C187.973 50.0333 188.36 49.875 188.664 49.571C188.968 49.2543 189.12 48.868 189.12 48.412V48.241H189.31V52.63H189.12V52.478C189.12 51.8447 188.866 51.376 188.36 51.072C188.106 50.9327 187.828 50.8567 187.524 50.844H184.997V56.183H187.486C188.41 56.183 189.183 55.917 189.804 55.385C190.437 54.853 190.906 54.0993 191.21 53.124H191.4L190.526 57H180.684V56.81H180.931Z" fill="#4E9247"/>
<path d="M16.936 13.544C16.36 12.328 16.072 11.176 16.072 10.088C16.072 8.968 16.216 7.944 16.504 7.016C16.792 6.056 17.272 5.128 17.944 4.232C18.616 3.304 19.56 2.536 20.776 1.928C22.44 1.064 24.44 0.631999 26.776 0.631999C29.848 0.631999 32.76 1.416 35.512 2.984C39.128 5.032 41.64 7.864 43.048 11.48C43.848 13.464 44.248 15.592 44.248 17.864C44.248 23.208 42.312 27.512 38.44 30.776C34.6 34.04 29.576 35.672 23.368 35.672C17.192 35.672 12.152 34.04 8.248 30.776C4.376 27.512 2.44 23.224 2.44 17.912C2.44 13.944 3.56 10.504 5.8 7.592C8.072 4.648 11.128 2.648 14.968 1.592L15.256 2.024C13.624 3.4 12.392 5.416 11.56 8.072C10.728 10.728 10.312 13.592 10.312 16.664C10.312 21.848 11.512 25.976 13.912 29.048C16.312 32.12 19.448 33.656 23.32 33.656C27.224 33.656 30.36 32.216 32.728 29.336C35.128 26.424 36.328 22.584 36.328 17.816C36.328 14.936 35.88 12.344 34.984 10.04C34.12 7.704 32.856 5.912 31.192 4.664C29.528 3.384 27.672 2.744 25.624 2.744C23.352 2.744 21.512 3.336 20.104 4.52C18.12 6.216 17.128 8.376 17.128 11C17.128 11.832 17.24 12.68 17.464 13.544H16.936ZM90.7998 34.52H91.5678V35H77.1678V34.568H77.8878C78.4318 34.568 78.8958 34.36 79.2798 33.944C79.6638 33.496 79.8238 33.016 79.7598 32.504L77.8878 15.08L68.8638 30.632C67.6798 32.616 67.0718 34.392 67.0398 35.96H66.5598L54.2238 15.224L52.3518 32.504C52.2878 33.016 52.4478 33.496 52.8318 33.944C53.2158 34.36 53.6798 34.568 54.2238 34.568H54.9438V35H44.9117V34.52H45.6798C46.5758 34.52 47.3438 34.248 47.9838 33.704C48.6558 33.16 49.0558 32.424 49.1838 31.496L53.1678 0.727998H53.5998L68.4798 25.208L82.7838 0.727998H83.2158L87.2958 31.496C87.4558 32.424 87.8558 33.16 88.4958 33.704C89.1678 34.248 89.9358 34.52 90.7998 34.52ZM111.792 0.727998C117.712 0.727998 122.416 2.296 125.904 5.432C129.392 8.568 131.136 12.824 131.136 18.2C131.136 23.576 129.392 27.832 125.904 30.968C122.416 34.104 117.712 35.672 111.792 35.672C105.872 35.672 101.168 34.104 97.6799 30.968C94.1919 27.832 92.4479 23.576 92.4479 18.2C92.4479 14.648 93.2319 11.56 94.7999 8.936C96.3999 6.28 98.6559 4.248 101.568 2.84C104.48 1.432 107.888 0.727998 111.792 0.727998ZM103.392 29.528C105.472 32.28 108.272 33.656 111.792 33.656C115.312 33.656 118.096 32.28 120.144 29.528C122.224 26.744 123.264 22.968 123.264 18.2C123.264 15.064 122.8 12.328 121.872 9.992C120.944 7.656 119.616 5.864 117.888 4.616C116.16 3.368 114.128 2.744 111.792 2.744C108.272 2.744 105.472 4.136 103.392 6.92C101.344 9.672 100.32 13.432 100.32 18.2C100.32 22.968 101.344 26.744 103.392 29.528ZM134.562 34.52C135.394 34.52 136.098 34.232 136.674 33.656C137.282 33.048 137.602 32.328 137.634 31.496V4.904C137.602 4.072 137.282 3.368 136.674 2.792C136.098 2.184 135.394 1.88 134.562 1.88H133.938V1.4H148.53L148.482 1.88H147.906C147.074 1.88 146.354 2.184 145.746 2.792C145.138 3.368 144.834 4.072 144.834 4.904V32.936H151.122C153.458 32.936 155.41 32.264 156.978 30.92C158.578 29.576 159.762 27.672 160.53 25.208H161.01L158.802 35H133.938V34.52H134.562ZM163.859 34.52C164.691 34.52 165.395 34.232 165.971 33.656C166.579 33.048 166.899 32.328 166.931 31.496V4.76C166.835 3.64 166.307 2.808 165.347 2.264C164.867 2.008 164.371 1.88 163.859 1.88H163.235V1.4H181.619C182.611 1.4 183.699 1.304 184.883 1.112C186.067 0.919999 186.899 0.727999 187.379 0.535997V8.936H186.899V8.36C186.899 6.92 186.467 5.768 185.603 4.904C184.771 4.008 183.635 3.528 182.195 3.464H174.131V17.432H180.467C181.651 17.4 182.627 17 183.395 16.232C184.163 15.432 184.547 14.456 184.547 13.304V12.872H185.027V23.96H184.547V23.576C184.547 21.976 183.907 20.792 182.627 20.024C181.987 19.672 181.283 19.48 180.515 19.448H174.131V32.936H180.419C182.755 32.936 184.707 32.264 186.275 30.92C187.875 29.576 189.059 27.672 189.827 25.208H190.307L188.099 35H163.235V34.52H163.859Z" fill="#4E9247"/>
<path d="M6.01376 76.1918C5.0431 76.1826 4.20195 75.974 3.49031 75.5662C2.78326 75.1538 2.2373 74.5767 1.85243 73.8347C1.47215 73.0882 1.28683 72.2091 1.29646 71.1974L1.29965 70.8625C1.30885 69.8964 1.50383 69.0437 1.88459 68.3045C2.26994 67.5607 2.81098 66.9802 3.50769 66.563C4.20896 66.1458 5.04265 65.9419 6.00875 65.9511C6.67864 65.9574 7.30888 66.0592 7.89948 66.2562C8.49008 66.4532 9.01592 66.7499 9.47702 67.1463L9.4541 69.5524L7.97077 69.5383L7.78009 68.0256C7.55375 67.864 7.29747 67.7362 7.01124 67.6423C6.72506 67.5439 6.40196 67.493 6.04195 67.4895C5.19889 67.4815 4.5329 67.7828 4.04399 68.3934C3.55513 68.9994 3.30572 69.8243 3.29578 70.8678L3.29246 71.2164C3.28248 72.2646 3.5252 73.0986 4.02062 73.7186C4.51604 74.3386 5.19668 74.6527 6.06252 74.661C6.34962 74.6637 6.63702 74.6345 6.92472 74.5735C7.21703 74.5079 7.48216 74.4238 7.72013 74.3213L7.93854 72.9219L9.42187 72.936L9.39922 75.3148C9.00944 75.5663 8.52432 75.7782 7.94388 75.9504C7.36348 76.1181 6.72011 76.1985 6.01376 76.1918ZM26.9822 76.3915C26.0844 76.383 25.3004 76.159 24.6301 75.7197C23.9598 75.2758 23.4392 74.6715 23.0682 73.9069C22.7017 73.1423 22.5231 72.2746 22.5324 71.304L22.5338 71.1536C22.543 70.1875 22.7381 69.3257 23.119 68.5682C23.5045 67.8108 24.0343 67.2165 24.7083 66.7854C25.3869 66.3544 26.1751 66.1431 27.0729 66.1517C27.9706 66.1602 28.7569 66.3865 29.4317 66.8304C30.1111 67.2744 30.6363 67.8787 31.0073 68.6434C31.3829 69.408 31.566 70.2734 31.5568 71.2395L31.5554 71.3899C31.5462 72.3606 31.3488 73.2246 30.9633 73.982C30.5778 74.7395 30.0412 75.3337 29.3535 75.7646C28.6704 76.1911 27.8799 76.4001 26.9822 76.3915ZM26.997 74.8398C27.84 74.8479 28.4765 74.5349 28.9064 73.9009C29.3363 73.2624 29.5563 72.4191 29.5662 71.371L29.5678 71.2069C29.5744 70.5188 29.4844 69.9141 29.298 69.3927C29.1116 68.8669 28.8306 68.4563 28.4552 68.161C28.0843 67.8658 27.6185 67.7155 27.058 67.7102C26.2195 67.7022 25.5899 68.0152 25.1691 68.6493C24.7529 69.2834 24.5398 70.1199 24.53 71.1589L24.5284 71.323C24.5184 72.3711 24.7177 73.2184 25.1263 73.8649C25.5395 74.5069 26.163 74.8319 26.997 74.8398ZM44.418 76.414L44.4294 75.2178L45.4908 75.0228L45.5589 67.8796L44.5013 67.6644L44.5127 66.4613L48.5253 66.4995L51.1729 73.4636L51.2139 73.4639L53.9049 66.5508L57.9242 66.5891L57.9128 67.7921L56.8445 67.987L56.7764 75.1303L57.8409 75.3455L57.8295 76.5417L53.7076 76.5025L53.719 75.3062L54.8351 75.1118L54.8533 73.2046L54.9302 68.714L54.8893 68.7067L51.8428 76.348L50.3321 76.3336L47.3627 68.6966L47.3216 68.703L47.3976 72.9285L47.3775 75.0408L48.5512 75.257L48.5398 76.4533L44.418 76.414ZM70.6498 76.6638L70.6612 75.4676L71.7227 75.2726L71.7907 68.1294L70.7331 67.9142L70.7446 66.7112L74.7571 66.7494L77.4048 73.7134L77.4458 73.7138L80.1368 66.8006L84.1561 66.8389L84.1446 68.042L83.0763 68.2369L83.0083 75.3801L84.0727 75.5953L84.0613 76.7916L79.9394 76.7523L79.9508 75.5561L81.067 75.3616L81.0851 73.4545L81.1621 68.9638L81.1211 68.9566L78.0746 76.5978L76.5639 76.5834L73.5945 68.9464L73.5535 68.9529L73.6294 73.1784L73.6093 75.2906L74.7831 75.5069L74.7717 76.7031L70.6498 76.6638ZM101.802 77.1041C101.009 77.0965 100.315 76.9532 99.721 76.6741C99.1266 76.395 98.6656 75.9941 98.3379 75.4714C98.0101 74.9487 97.8498 74.316 97.8569 73.5732L97.9064 68.3781L96.8488 68.1629L96.8603 66.9599L100.982 66.9991L100.971 68.2022L99.9024 68.3971L99.8529 73.5922C99.8466 74.2484 100.017 74.7422 100.365 75.0737C100.718 75.4006 101.201 75.567 101.817 75.5729C102.441 75.5788 102.932 75.4217 103.291 75.1016C103.649 74.7814 103.832 74.2909 103.838 73.6301L103.888 68.4351L102.83 68.2199L102.841 67.0168L106.963 67.0561L106.952 68.2592L105.884 68.4541L105.834 73.6492C105.827 74.392 105.652 75.0238 105.31 75.5446C104.973 76.061 104.502 76.453 103.898 76.7207C103.298 76.9839 102.599 77.1117 101.802 77.1041ZM119.627 77.1303L119.639 75.934L120.7 75.7391L120.768 68.5958L119.711 68.3807L119.722 67.1776L122.805 67.207L127.073 74.1522L127.114 74.1458L127.166 68.6568L125.897 68.4396L125.908 67.2365L130.03 67.2758L130.019 68.4789L128.95 68.6738L128.869 77.2183L126.941 77.1999L122.577 70.3221L122.536 70.3286L122.484 75.7561L123.761 75.9733L123.749 77.1695L119.627 77.1303ZM142.701 77.35L142.713 76.1538L143.774 75.9588L143.842 68.8156L142.784 68.6004L142.796 67.3974L146.911 67.4366L146.9 68.6396L145.838 68.8346L145.77 75.9778L146.828 76.193L146.816 77.3892L142.701 77.35ZM161.981 77.5337L161.993 76.3374L163.061 76.1425L163.128 69.1292L161.316 69.1119L161.196 70.3003L159.685 70.2859L159.711 67.5585L168.59 67.643L168.564 70.3704L167.047 70.356L166.949 69.1655L165.124 69.1482L165.057 76.1615L166.128 76.3768L166.117 77.573L161.981 77.5337ZM184.118 77.7445L184.13 76.5482L185.198 76.3533L185.217 74.3437L182.314 69.1136L181.358 68.9678L181.37 67.7647L185.341 67.8026L185.33 69.0056L184.515 69.1141L186.139 72.3084L186.286 72.6311L186.328 72.6247L186.481 72.3253L188.35 69.1506L187.257 69.024L187.269 67.8209L191.165 67.858L191.154 69.0611L190.168 69.1884L187.208 74.2054L187.187 76.3723L188.252 76.5875L188.24 77.7837L184.118 77.7445Z" fill="#DB9E30"/>
</svg>
