<svg width="152" height="151" viewBox="0 0 152 151" fill="none" xmlns="http://www.w3.org/2000/svg">
<path d="M76 111.726C77.6397 111.726 78.969 110.397 78.969 108.757C78.969 107.117 77.6397 105.788 76 105.788C74.3602 105.788 73.0309 107.117 73.0309 108.757C73.0309 110.397 74.3602 111.726 76 111.726Z" fill="#DB9E30"/>
<path d="M152 80.6341V71.3909C152 70.2872 151.453 69.2615 150.536 68.6472C149.619 68.033 148.463 67.916 147.441 68.3361L141.196 70.9038V66.6457C141.196 65.4368 140.599 64.3087 139.6 63.6283C138.601 62.9478 137.332 62.8065 136.208 63.2494L133.518 64.3093V58.6036C133.518 57.5515 132.992 56.581 132.112 56.0072C131.225 55.4292 130.116 55.3401 129.144 55.7688C127.189 56.6315 124.224 56.9343 120.567 56.6434C114.662 56.174 108.743 56.5543 102.976 57.7736C86.713 61.2117 79.1775 67.5547 76.0039 71.298C75.3136 70.4813 74.4197 69.5438 73.2667 68.5356C68.7527 64.5883 62.5498 61.4536 54.8304 59.2185C53.6504 58.8768 52.4139 59.5563 52.0722 60.7382C51.7302 61.9194 52.4106 63.1544 53.5919 63.4964C68.0206 67.6744 72.8024 74.1964 73.7731 75.7636V77.9142C59.8429 68.6915 42.6862 65.1102 41.9006 64.9499C40.6968 64.7053 39.5203 65.4813 39.2742 66.6861C39.0281 67.8908 39.805 69.067 41.0097 69.3137C41.2051 69.3535 60.2695 73.3432 73.7731 83.3503V86.0916L60.9443 81.0376L22.936 66.0638V60.5048C25.3386 61.1651 28.3047 61.3601 31.7861 61.0831C35.8779 60.7578 40.0084 60.8738 44.0616 61.4284C45.2788 61.5961 46.4033 60.7426 46.5696 59.524C46.7364 58.3056 45.8835 57.1825 44.6651 57.016C40.2951 56.4183 35.8438 56.2931 31.4328 56.6434C27.7777 56.9346 24.8116 56.6315 22.8558 55.7688C21.8847 55.3401 20.7744 55.4292 19.8882 56.0072C19.0083 56.581 18.4825 57.5515 18.4825 58.6036V64.3093L15.7923 63.2494C14.6677 62.8065 13.3995 62.9478 12.4002 63.6283C11.4009 64.3087 10.8042 65.4368 10.8042 66.6457V70.9038L4.55881 68.3361C3.53786 67.916 2.38094 68.0327 1.46448 68.6472C0.547438 69.2615 0 70.2872 0 71.3909V80.6341C0 81.8766 0.686078 83.0017 1.79016 83.57L49.9881 108.402L2.04725 128.112C0.803344 128.623 0 129.823 0 131.167V147.167C0 148.269 0.545953 149.294 1.46092 149.909C2.01459 150.281 2.65584 150.471 3.30214 150.471C3.724 150.471 4.14794 150.39 4.55109 150.226L16.5992 145.308L24.3853 147.423C25.1839 147.64 26.0282 147.551 26.7639 147.172L76 121.804L102.41 135.411C103.503 135.974 104.846 135.544 105.41 134.451C105.973 133.358 105.543 132.015 104.45 131.452L80.8619 119.299L96.8136 111.081L147.546 131.938V145.454L136.724 141.038C136.057 140.765 135.306 140.719 134.61 140.908L126.879 143.008L113.712 136.224C112.619 135.661 111.276 136.09 110.713 137.184C110.149 138.277 110.579 139.62 111.673 140.183L125.236 147.172C125.972 147.551 126.817 147.64 127.615 147.423L135.401 145.308L147.449 150.225C147.852 150.389 148.276 150.47 148.698 150.47C149.344 150.47 149.986 150.28 150.539 149.908C151.454 149.294 152 148.269 152 147.167V131.166C152 129.822 151.196 128.623 149.953 128.112L102.012 108.402L150.21 83.5705C151.314 83.0017 152 81.8766 152 80.6341ZM78.2269 83.3503C91.7305 73.3432 110.795 69.3535 110.99 69.3137C112.195 69.0676 112.972 67.8917 112.726 66.6867C112.481 65.4816 111.304 64.7047 110.099 64.9499C109.314 65.1102 92.1574 68.6915 78.2269 77.9142V75.7609C78.6772 75.0288 79.9467 73.225 82.5969 71.1104C86.0789 68.3322 92.6007 64.5192 103.898 62.1308C109.246 60.9997 114.736 60.6473 120.214 61.0828C123.696 61.3595 126.661 61.1648 129.064 60.5042V66.0635L91.056 81.0373L78.2272 86.0913V83.3503H78.2269ZM15.2576 67.8258L75.1836 91.4342C75.7079 91.6408 76.2918 91.6408 76.8161 91.4342L136.742 67.8258V72.7349L76 97.708L15.2576 72.7349V67.8258ZM4.45372 79.9326V73.1087L70.1438 100.116L55.3963 106.179L4.45372 79.9326ZM3.74003 132.232L3.74627 132.229C3.74419 132.23 3.74211 132.231 3.74003 132.232ZM147.546 79.9326L25.121 143.008L17.3897 140.908C16.6936 140.718 15.9425 140.764 15.276 141.037L4.45342 145.454V131.938L147.546 73.1087V79.9326H147.546Z" fill="#DB9E30"/>
<path d="M87.1518 19.7667C88.7916 19.7667 90.1208 18.4374 90.1208 16.7977C90.1208 15.1579 88.7916 13.8286 87.1518 13.8286C85.5121 13.8286 84.1828 15.1579 84.1828 16.7977C84.1828 18.4374 85.5121 19.7667 87.1518 19.7667Z" fill="#DB9E30"/>
<path d="M96.8064 19.7242C98.4166 19.4143 99.4707 17.8577 99.1608 16.2474C98.8509 14.6372 97.2943 13.5831 95.684 13.893C94.0738 14.2029 93.0197 15.7595 93.3296 17.3697C93.6395 18.9799 95.1961 20.0341 96.8064 19.7242Z" fill="#DB9E30"/>
<path d="M112.326 49.7979C113.556 49.7979 114.552 48.801 114.552 47.571V22.0291C114.552 20.7992 113.556 19.8022 112.326 19.8022C111.096 19.8022 110.099 20.7992 110.099 22.0291V47.5713C110.099 48.801 111.096 49.7979 112.326 49.7979Z" fill="#DB9E30"/>
<path d="M41.4123 22.0291V47.5714C41.4123 48.8013 42.4092 49.7983 43.6392 49.7983C44.8691 49.7983 45.866 48.8013 45.866 47.5714V22.0291C45.866 20.7992 44.8691 19.8022 43.6392 19.8022C42.4092 19.8022 41.4123 20.7992 41.4123 22.0291Z" fill="#DB9E30"/>
<path d="M56.8011 51.2217C58.4657 52.1417 60.632 52.5725 62.895 52.5725C66.8972 52.5725 71.2007 51.2238 73.5594 48.8452C74.7199 47.675 75.6019 46.1775 76.1665 44.4655C78.885 46.1274 81.9927 47.0245 85.0639 47.0245C93.0629 47.0245 100.734 42.1175 100.655 33.5072C100.619 29.592 99.0036 25.9868 96.4398 24.0978C94.9771 23.0207 92.5059 21.9546 89.0375 22.9966C84.3644 24.4 82.5437 28.9027 83.537 32.2698C84.159 34.3779 85.5953 35.9879 87.6918 36.9257C90.193 38.0449 93.1151 37.9787 95.4509 37.3503C94.3207 39.8125 91.691 41.9809 86.1291 42.5197C83.0442 42.8178 79.7822 41.8108 77.1804 39.7552C77.0871 39.6816 76.9889 39.6193 76.8885 39.5626C76.8716 37.13 76.4028 34.8078 75.9459 32.5536L75.1482 28.6183C74.9042 27.413 73.731 26.6346 72.5233 26.878C71.318 27.1223 70.539 28.2973 70.7833 29.5027L71.581 33.438C72.0447 35.7269 72.5242 38.0939 72.4226 40.3353C72.3202 42.5865 71.6009 44.4948 70.3968 45.7094C68.1156 48.0092 61.8076 48.8996 58.9546 47.3235C57.6558 46.6056 56.8076 45.3605 56.685 43.9928C56.5707 42.7136 57.092 41.5335 58.1536 40.6699C59.1075 39.8936 59.2515 38.4911 58.4752 37.5373C57.6991 36.5834 56.297 36.4391 55.3422 37.2158C53.1299 39.0163 52.0024 41.6309 52.2491 44.3895C52.5035 47.2332 54.2049 49.7872 56.8011 51.2217ZM95.4138 32.6469C93.8742 33.3766 91.3514 33.6844 89.5105 32.8603C88.6142 32.4595 88.0576 31.8539 87.8085 31.0096C87.3231 29.3643 88.7142 27.7437 90.3183 27.2621C90.8393 27.1057 91.325 27.027 91.7789 27.027C92.5353 27.027 93.2033 27.2452 93.7979 27.6834C95.0205 28.5841 95.8856 30.385 96.1305 32.4444C95.8882 32.4702 95.6463 32.5367 95.4138 32.6469Z" fill="#DB9E30"/>
<path d="M37.6307 15.586C37.9947 16.4267 38.8146 16.9293 39.6759 16.9293C39.9707 16.9293 40.2708 16.8702 40.5591 16.7456C44.3582 15.1021 48.4589 12.972 48.6317 12.882C49.5683 12.3949 50.0338 11.3169 49.7467 10.301C49.4597 9.28509 48.4966 8.60911 47.4457 8.68541C44.4683 8.89708 42.7019 8.34608 42.199 7.04725C41.8143 6.05331 42.1907 5.40375 42.449 5.10509C42.8109 4.6865 43.5035 4.30947 44.362 4.50659C45.562 4.78031 46.7557 4.03219 47.03 2.83341C47.3047 1.63462 46.5556 0.44 45.3572 0.16539C43.0282 -0.3675 40.6238 0.408234 39.0812 2.19097C37.5502 3.96034 37.1634 6.3772 38.046 8.65601C38.4735 9.7592 39.2522 10.9422 40.6612 11.8216C40.0395 12.1078 39.4087 12.3907 38.7903 12.6582C37.6616 13.1462 37.1423 14.4572 37.6307 15.586Z" fill="#DB9E30"/>
</svg>
